<?xml version="1.0" encoding="utf-8"?>
<!-- Generator: Adobe Illustrator 18.0.0, SVG Export Plug-In . SVG Version: 6.00 Build 0)  -->
<!DOCTYPE svg PUBLIC "-//W3C//DTD SVG 1.1//EN" "http://www.w3.org/Graphics/SVG/1.1/DTD/svg11.dtd">
<svg version="1.1" id="Layer_1" xmlns="http://www.w3.org/2000/svg" xmlns:xlink="http://www.w3.org/1999/xlink" x="0px" y="0px"
	 viewBox="0 50.8 128 26.4" enable-background="new 0 50.8 128 26.4" xml:space="preserve">
<g>
	<g>
		<g>
			
				<linearGradient id="SVGID_1_" gradientUnits="userSpaceOnUse" x1="482.9957" y1="-316.8114" x2="485.2527" y2="-300.5608" gradientTransform="matrix(0.1482 0 0 -0.1482 -58.1052 6.925)">
				<stop  offset="0.2393" style="stop-color:#4A9ED7"/>
				<stop  offset="0.47" style="stop-color:#4397D2"/>
				<stop  offset="0.8637" style="stop-color:#2C85C6"/>
				<stop  offset="1" style="stop-color:#217EC2"/>
			</linearGradient>
			<polygon fill="url(#SVGID_1_)" points="3.1,51.1 3.1,54.5 20.6,54.5 24.6,51.1 			"/>
		</g>
		<g>
			
				<linearGradient id="SVGID_2_" gradientUnits="userSpaceOnUse" x1="459.6069" y1="-340.989" x2="461.4579" y2="-323.0982" gradientTransform="matrix(0.1482 0 0 -0.1482 -58.1052 6.925)">
				<stop  offset="0.2393" style="stop-color:#B4DDF3"/>
				<stop  offset="0.4816" style="stop-color:#AAD3ED"/>
				<stop  offset="0.8951" style="stop-color:#90BDDF"/>
				<stop  offset="1" style="stop-color:#89B7DB"/>
			</linearGradient>
			<polygon fill="url(#SVGID_2_)" points="0,54.5 0,58.1 16.7,58.1 20.6,54.5 			"/>
		</g>
		<g>
			
				<linearGradient id="SVGID_3_" gradientUnits="userSpaceOnUse" x1="464.1802" y1="-359.9431" x2="465.9727" y2="-346.7987" gradientTransform="matrix(0.1482 0 0 -0.1482 -58.1052 6.925)">
				<stop  offset="0.2393" style="stop-color:#4FC2BA"/>
				<stop  offset="0.4609" style="stop-color:#47B9B0"/>
				<stop  offset="0.839" style="stop-color:#33A69A"/>
				<stop  offset="1" style="stop-color:#289D90"/>
			</linearGradient>
			<polygon fill="url(#SVGID_3_)" points="5.3,58.1 5.3,61.5 12.6,61.5 16.7,58.1 			"/>
		</g>
		<path d="M25,50.9c-0.2-0.2-0.5-0.2-0.6,0L8.4,65.4l0,0c-0.6,0.6-0.6,1.5,0,2.1c0.3,0.3,0.6,0.4,1,0.4c0.4,0,0.7-0.1,1-0.4l14.6-16
			C25.2,51.4,25.2,51.1,25,50.9z"/>
	</g>
	<path fill="#231F20" d="M44.7,63.5c-2.2,0-3.5,1.1-4.3,2.2v-5.6c0,0,0,0,0-0.1l0-0.8c0-0.6-0.3-0.9-0.9-0.9h-0.2
		c-0.6,0-0.9,0.3-0.9,0.9v16.9c0,0.6,0.3,0.9,0.9,0.9h0.2c0.6,0,0.9-0.3,0.9-0.9v-6.4c0-2.6,1.6-4.3,4.2-4.3c2.1,0,3.4,1.5,3.4,4.1
		v6.7c0,0.6,0.3,0.9,0.9,0.9H49c0.6,0,0.9-0.3,0.9-0.9v-6.8C49.9,65.6,48,63.5,44.7,63.5z"/>
	<path fill="#231F20" d="M57,63.5c-3.5,0-5.3,2.1-5.3,3.1c0,0.2,0.1,0.5,0.2,0.6c0.2,0.2,0.4,0.3,0.6,0.3c0.2,0,0.4-0.1,0.5-0.2
		c1-1.3,2.2-1.9,3.8-1.9c2.3,0,3.5,1.2,3.5,3.4V69h-0.2c-6.2,0.1-9,1.5-9,4.5c0,2.3,1.7,3.7,4.5,3.7c2,0,3.7-0.8,4.7-2.2v0.2
		c0,0.1,0,0.1,0,0.2v0.7c0,0.6,0.3,0.9,0.8,0.9h0.2c0.5,0,0.8-0.2,0.8-0.7c0,0,0,0,0-0.1v-7.6C62.3,65.4,60.3,63.5,57,63.5z
		 M55.9,75.6c-1.7,0-2.7-0.8-2.7-2.1c0-1.9,2-2.7,6.6-2.9l0.7,0v1.1C60.4,73.9,58.5,75.6,55.9,75.6z"/>
	<path fill="#231F20" d="M113.6,63.5c-3.5,0-5.3,2.1-5.3,3.1c0,0.2,0.1,0.5,0.2,0.6c0.2,0.2,0.4,0.3,0.6,0.3c0.2,0,0.4-0.1,0.5-0.2
		c1-1.3,2.2-1.9,3.8-1.9c2.3,0,3.5,1.2,3.5,3.4V69h-0.2c-6.2,0.1-9,1.5-9,4.5c0,2.3,1.7,3.7,4.5,3.7c1.9,0,3.7-0.8,4.7-2.2v0.2
		c0,0.1,0,0.1,0,0.2v0.7c0,0.6,0.3,0.9,0.8,0.9h0.2c0.5,0,0.8-0.2,0.8-0.7c0,0,0,0,0-0.1v-7.6C118.9,65.4,116.9,63.5,113.6,63.5z
		 M112.5,75.6c-1.7,0-2.7-0.8-2.7-2.1c0-1.9,2-2.7,6.6-2.9l0.7,0v1.1C117,73.9,115.1,75.6,112.5,75.6z"/>
	<path fill="#231F20" d="M35.9,72.2c-0.2,0-0.5,0.1-0.6,0.3c-0.9,1.8-3,3-5.4,3c-3.9,0-6.8-3.1-6.8-7.4c0-4.3,2.8-7.4,6.7-7.4
		c2,0,3.9,0.9,5,2.4c0.2,0.2,0.4,0.3,0.7,0.3c0.3,0,0.5-0.1,0.7-0.3c0.2-0.2,0.2-0.4,0.2-0.6c0-1-2.3-3.5-6.6-3.5
		c-5.2,0-8.8,3.8-8.8,9.2c0,5.4,3.6,9.1,8.8,9.1c4.6,0,7-2.9,7-4c0-0.3-0.1-0.5-0.3-0.7C36.4,72.3,36.1,72.2,35.9,72.2z"/>
	<path fill="#231F20" d="M77.6,75.1c-0.4,0.3-0.9,0.4-1.4,0.4c-1.3,0-1.8-0.8-1.8-2.7v-7.3h3.1c0.3,0,0.5-0.1,0.7-0.3
		c0.5-0.5,0.5-1.3,0.5-1.4c0,0,0-0.1-0.1-0.1h-4.2v-2.2c0-0.6-0.3-0.9-0.8-0.9h-0.2c-0.6,0-0.9,0.3-0.9,0.9v2.2h-2.3c0,0,0,0,0,0
		c-2.1,0-3.4,0.6-4,2v-0.3c0,0,0-0.1,0-0.1l0,0c0,0,0,0,0,0v-0.7c0-0.6-0.3-0.9-0.9-0.9h-0.2c-0.6,0-0.9,0.3-0.9,0.9v11.4
		c0,0.6,0.3,0.9,0.9,0.9h0.2c0.6,0,0.9-0.3,0.9-0.9V71c0-3.5,1.4-5.4,3.9-5.4c0,0,0,0,0,0l0,0c0,0,0,0,0.1,0h2.3V73
		c0,2.8,1.2,4.2,3.7,4.2c1.4,0,2.2-0.6,2.5-1.1c0.1-0.2,0.1-0.5,0-0.8C78.5,75,78.1,74.9,77.6,75.1z"/>
	<path fill="#231F20" d="M127.9,75.4c-0.2-0.4-0.7-0.5-1.1-0.2c-0.4,0.3-0.9,0.4-1.4,0.4c-1.3,0-1.8-0.8-1.8-2.7v-7.3h3.1
		c0.3,0,0.5-0.1,0.7-0.3c0.5-0.5,0.5-1.3,0.5-1.4c0,0,0-0.1-0.1-0.1h-4.2v-2.2c0-0.6-0.3-0.9-0.8-0.9h-0.2c-0.6,0-0.9,0.3-0.9,0.9
		v2.2h-1.1c-0.6,0-0.9,0.2-0.9,0.8v0.2c0,0.5,0.3,0.8,0.9,0.8h1.1V73c0,2.8,1.2,4.2,3.7,4.2c1.4,0,2.2-0.6,2.5-1.1
		C128,75.9,128,75.6,127.9,75.4z"/>
	<path fill="#231F20" d="M86.9,63.5c-2,0-3.5,0.7-4.7,2.3v-5.7c0,0,0,0,0-0.1l0-0.8c0-0.6-0.3-0.9-0.9-0.9h-0.2
		c-0.6,0-0.9,0.3-0.9,0.9v16.9c0,0.6,0.3,0.9,0.9,0.9h0.2c0.6,0,0.8-0.3,0.8-0.9v-1c0.7,1.1,2.3,2.1,4.6,2.1c3.7,0,6.3-2.8,6.3-6.9
		C93.1,66.4,90.5,63.5,86.9,63.5z M91.1,70.4c0,3.1-1.8,5.1-4.5,5.1c-2.5,0-4.5-1.9-4.5-4.3v-3c0.8-1.9,2.5-3,4.5-3
		C89.3,65.2,91.1,67.4,91.1,70.4z"/>
	<path fill="#231F20" d="M100.7,63.5c-3.8,0-6.6,2.9-6.6,6.9c0,4,2.8,6.8,6.7,6.8c3.6,0,5.5-2.1,5.5-2.9c0-0.2-0.1-0.5-0.2-0.6
		c-0.2-0.2-0.4-0.3-0.6-0.3c-0.2,0-0.4,0.1-0.5,0.2c-0.9,1.1-1.8,1.9-4.1,1.9c-2.7,0-4.6-1.9-4.8-4.5h9.9c0.5,0,0.8-0.1,0.8-0.7
		v-0.2C106.8,66.1,104.4,63.5,100.7,63.5z M100.7,65.2c2.3,0,3.9,1.5,4.1,4h-8.6C96.5,66.8,98.4,65.2,100.7,65.2z"/>
</g>
</svg>
