<?xml version="1.0" encoding="utf-8"?>
<!-- Generator: Adobe Illustrator 18.0.0, SVG Export Plug-In . SVG Version: 6.00 Build 0)  -->
<!DOCTYPE svg PUBLIC "-//W3C//DTD SVG 1.1//EN" "http://www.w3.org/Graphics/SVG/1.1/DTD/svg11.dtd">
<svg version="1.1" id="Layer_1" xmlns="http://www.w3.org/2000/svg" xmlns:xlink="http://www.w3.org/1999/xlink" x="0px" y="0px"
	 viewBox="265.4 11 34.5 22.3" enable-background="new 265.4 11 34.5 22.3" xml:space="preserve">
<path fill="#FFFFFF" d="M285.9,11h-6.4c-0.9,0-1.7,0.8-1.7,1.7v13.2c0,0.9,0.8,1.7,1.7,1.7h6.4c0.9,0,1.7-0.8,1.7-1.7V12.7
	C287.6,11.8,286.8,11,285.9,11z M282.7,26.9c-0.5,0-0.9-0.4-0.9-0.9c0-0.5,0.4-0.9,0.9-0.9s0.9,0.4,0.9,0.9
	C283.6,26.5,283.2,26.9,282.7,26.9z M286.2,24.4h-7.1V13.2h7.1V24.4z"/>
</svg>
