<?xml version="1.0" encoding="utf-8"?>
<!-- Generator: Adobe Illustrator 18.0.0, SVG Export Plug-In . SVG Version: 6.00 Build 0)  -->
<!DOCTYPE svg PUBLIC "-//W3C//DTD SVG 1.1//EN" "http://www.w3.org/Graphics/SVG/1.1/DTD/svg11.dtd">
<svg version="1.1" id="Layer_1" xmlns="http://www.w3.org/2000/svg" xmlns:xlink="http://www.w3.org/1999/xlink" x="0px" y="0px"
	 viewBox="0 0 66.5 66.5" enable-background="new 0 0 66.5 66.5" xml:space="preserve">
<g>
	<g>
		<path fill="#FFFFFF" stroke="#DEDDDD" stroke-miterlimit="10" d="M60.8,66H5.7c-2.8,0-5.2-2.3-5.2-5.2V5.7c0-2.8,2.3-5.2,5.2-5.2
			h55.1c2.8,0,5.2,2.3,5.2,5.2v55.1C66,63.6,63.6,66,60.8,66z"/>
	</g>
	<g>
		<g>
			<defs>
				<rect id="SVGID_1_" x="13.3" y="20.6" width="40.9" height="25.3"/>
			</defs>
			<clipPath id="SVGID_2_">
				<use xlink:href="#SVGID_1_"  overflow="visible"/>
			</clipPath>
			<path clip-path="url(#SVGID_2_)" fill="#AFAFAF" d="M17,42.9h33.2c0.9,0,1.6-0.7,1.6-1.6V22.1c0-0.9-0.7-1.6-1.6-1.6H17
				c-0.9,0-1.6,0.7-1.6,1.6v19.3C15.4,42.2,16.1,42.9,17,42.9L17,42.9z M17,22.1h33.2l0,19.3H17V22.1z M17,22.1"/>
			<path clip-path="url(#SVGID_2_)" fill="#AFAFAF" d="M53.5,43.9H13.7c-0.2,0-0.3,0.1-0.4,0.2c-0.1,0.2-0.1,0.3,0,0.5
				c0.2,0.3,0.4,0.7,6.7,1c3.5,0.2,8.2,0.3,13.3,0.3c4.5,0,19.3-0.1,20.3-1.2c0.1-0.1,0.1-0.2,0.1-0.4C53.8,44,53.7,43.9,53.5,43.9
				L53.5,43.9z M53.5,43.9"/>
		</g>
		<path fill="#AFAFAF" d="M46.5,27c-0.7,0-1.2,0.5-1.2,1.2c0,0.1,0,0.3,0.1,0.4l-2.7,3.3c-0.1,0-0.2,0-0.3,0c-0.3,0-0.5,0.1-0.7,0.3
			l-3.1-1.5c-0.1-0.6-0.6-1.1-1.2-1.1c-0.7,0-1.2,0.5-1.2,1.2c0,0.1,0,0.2,0,0.2l-3,2.7c-0.1-0.1-0.3-0.1-0.5-0.1
			c-0.2,0-0.4,0-0.5,0.1l-3.7-3.3c0-0.1,0-0.1,0-0.2c0-0.7-0.5-1.2-1.2-1.2c-0.5,0-0.9,0.3-1.1,0.7l-4.7,0.4c-0.2-0.3-0.6-0.6-1-0.6
			c-0.7,0-1.2,0.5-1.2,1.2c0,0.7,0.5,1.2,1.2,1.2c0.5,0,0.9-0.3,1.1-0.7l4.7-0.4c0.2,0.3,0.6,0.6,1,0.6c0.2,0,0.3,0,0.5-0.1l3.7,3.4
			c0,0,0,0.1,0,0.1c0,0.7,0.5,1.2,1.2,1.2c0.7,0,1.2-0.5,1.2-1.2c0-0.1,0-0.1,0-0.2l3-2.7c0.1,0.1,0.3,0.1,0.4,0.1
			c0.3,0,0.5-0.1,0.8-0.3l3,1.5c0.1,0.6,0.6,1.1,1.2,1.1c0.7,0,1.2-0.5,1.2-1.2c0-0.1,0-0.3-0.1-0.4l2.7-3.3c0.1,0,0.2,0,0.3,0
			c0.7,0,1.2-0.5,1.2-1.2C47.8,27.5,47.2,27,46.5,27L46.5,27z M20.6,31.2c-0.3,0-0.6-0.3-0.6-0.6c0-0.3,0.3-0.6,0.6-0.6
			c0.3,0,0.6,0.3,0.6,0.6C21.3,30.9,21,31.2,20.6,31.2L20.6,31.2z M27.4,30.7c-0.3,0-0.6-0.3-0.6-0.6c0-0.3,0.3-0.6,0.6-0.6
			c0.3,0,0.6,0.3,0.6,0.6C28.1,30.4,27.8,30.7,27.4,30.7L27.4,30.7z M32.8,35.4c-0.3,0-0.6-0.3-0.6-0.6c0-0.3,0.3-0.6,0.6-0.6
			c0.3,0,0.6,0.3,0.6,0.6C33.5,35.1,33.2,35.4,32.8,35.4L32.8,35.4z M37.5,31.3c-0.3,0-0.6-0.3-0.6-0.6c0-0.3,0.3-0.6,0.6-0.6
			c0.3,0,0.6,0.3,0.6,0.6C38.1,31,37.8,31.3,37.5,31.3L37.5,31.3z M42.5,33.7c-0.3,0-0.6-0.3-0.6-0.6c0-0.3,0.3-0.6,0.6-0.6
			c0.3,0,0.6,0.3,0.6,0.6C43.1,33.4,42.8,33.7,42.5,33.7L42.5,33.7z M46.5,28.8c-0.3,0-0.6-0.3-0.6-0.6c0-0.3,0.3-0.6,0.6-0.6
			c0.3,0,0.6,0.3,0.6,0.6C47.2,28.5,46.9,28.8,46.5,28.8L46.5,28.8z M46.5,28.8"/>
	</g>
</g>
</svg>
