<?xml version="1.0" encoding="utf-8"?>
<!-- Generator: Adobe Illustrator 18.0.0, SVG Export Plug-In . SVG Version: 6.00 Build 0)  -->
<!DOCTYPE svg PUBLIC "-//W3C//DTD SVG 1.1//EN" "http://www.w3.org/Graphics/SVG/1.1/DTD/svg11.dtd">
<svg version="1.1" id="Layer_1" xmlns="http://www.w3.org/2000/svg" xmlns:xlink="http://www.w3.org/1999/xlink" x="0px" y="0px"
	 viewBox="10.4 50.3 107.2 27.4" enable-background="new 10.4 50.3 107.2 27.4" xml:space="preserve">
<g>
	<path fill="#404041" d="M68.2,68.4l-1.4-1.7c1.6-0.2,2.6-1.4,2.6-2.7c0-1.6-1.2-2.8-3.5-2.8h-4.5v0.5c1.5,0,1.7,0.4,1.7,2.6v3.6
		c0,2.3-0.3,2.6-1.7,2.6V71h5v-0.4c-1.5,0-1.7-0.4-1.7-2.6v-1.1h0.6l3,4.2h2.8v-0.4C70.1,70.4,69.1,69.5,68.2,68.4z M64.8,66V62H66
		c1.2,0,1.8,0.9,1.8,2c0,1.1-0.6,1.9-1.8,1.9C66,66,64.8,66,64.8,66z"/>
	<path fill="#404041" d="M57.8,68.6l-3.2-7.5h-0.3l-3.2,7.5c-0.7,1.6-0.9,1.9-2.3,1.9V71h4.1v-0.5c-1.7,0-1.7-0.4-1.2-1.7l0.4-1h3.6
		l0.4,1c0.5,1.3,0.4,1.7-1.2,1.7V71h4.9v-0.5C58.8,70.5,58.5,70.3,57.8,68.6z M52.5,67.1l1.4-3.3l1.4,3.3H52.5z"/>
	<path fill="#404041" d="M45.3,65.2c3,0,4.7-1.6,4.7-3.7c0-2-1.7-3.7-4.7-3.7h-5.8v0.5c1.8,0,2.1,0.4,2.1,2.5V68
		c0,2.2-0.3,2.6-2.1,2.6V71h5.9v-0.5c-1.8,0-2.1-0.4-2.1-2.6v-2.7C43.4,65.2,45.3,65.2,45.3,65.2z M43.4,58.7h1.9
		c1.9,0,2.8,1.3,2.8,2.9c0,1.6-0.9,2.9-2.8,2.9h-1.9V58.7z"/>
	<path fill="#404041" d="M89.6,68.7c-0.3,1.1-0.5,1.4-2.5,1.4h-0.3c-1.5,0-1.7-0.4-1.7-2.6v-1.3h0.1c2.2,0,2.4,0.3,2.4,1.8H88v-4.4
		h-0.4c0,1.5-0.2,1.8-2.4,1.8h-0.1V62h1.5c2,0,2.3,0.4,2.5,1.4l0.1,0.5h0.5l-0.2-2.7h-7.7v0.4c1.5,0,1.7,0.4,1.7,2.6v3.6
		c0,2.3-0.3,2.6-1.7,2.6V71H90l0.2-2.7h-0.4L89.6,68.7z"/>
	<path fill="#404041" d="M78.3,65.7l-1.5-0.8c-1.4-0.7-2-1.1-2-1.9c0-0.8,0.8-1.3,1.7-1.3c1.7,0,2.3,1.6,2.4,2.9h0.5v-3.7h-0.5
		c0,0.4-0.2,0.6-0.3,0.7C78,61.3,77.2,61,76.3,61c-1.7,0-2.9,1.1-2.9,2.5c0,1.2,0.8,2.1,1.9,2.7l1.6,0.8c1.2,0.6,1.9,1.2,1.9,2
		c0,0.9-0.8,1.5-1.8,1.5c-1.7,0-3-1.1-3.2-2.9h-0.5v3.8h0.4c0.1-0.4,0.3-0.7,0.4-0.8c0.4,0.3,1.4,0.8,2.6,0.8c1.8,0,3.3-1.2,3.3-3
		C80.1,67.4,79.6,66.4,78.3,65.7z"/>
	<path fill="#404041" d="M113.5,61.1v0.5c1.5,0,1.5,0.3,0.6,1.7l-1.7,2.6l-1.7-2.6c-0.9-1.3-0.7-1.7,0.6-1.7v-0.5h-4.9v0.5
		c1.1,0,1.6,0.4,2.6,2l2.2,3.3v0.9c0,2.3-0.3,2.7-1.8,2.7V71h5v-0.5c-1.5,0-1.7-0.4-1.7-2.7v-1l2.2-3.3c1-1.5,1.5-2,2.7-2v-0.5
		H113.5z"/>
	<path fill="#404041" d="M105.5,68.7c-0.3,1.1-0.5,1.5-2.5,1.5h-0.8c-1.5,0-1.7-0.4-1.7-2.6v-3.3c0-2.3,0.3-2.6,1.7-2.6v-0.5h-5v0.5
		c1.5,0,1.7,0.4,1.7,2.6v3.6c0,2.3-0.3,2.7-1.7,2.7V71h8.7l0.2-2.8h-0.5L105.5,68.7z"/>
	<circle fill="#388F5B" cx="93.7" cy="70.3" r="0.9"/>
	<g>
		<path fill="#388F5B" d="M25.1,74.9c0,1.6-1.3,2.8-2.8,2.8c-1.6,0-2.8-1.3-2.8-2.8c0-1.6,1.3-2.8,2.8-2.8
			C23.9,72.1,25.1,73.3,25.1,74.9z"/>
		<path fill="#388F5B" d="M18.2,65.6c1.8,1.7,2.6,4.3,2.8,5.1c0.4-0.1,0.9-0.2,1.3-0.2c0.4,0,0.9,0.1,1.3,0.2c0.2-0.8,1-3.4,2.8-5.1
			c1-0.9,1.6-1.9,2-2.9c0.4-1,0.4-2.7,0.4-2.7c0-0.2-0.1-0.3-0.3-0.2l-1.9,1.3c-0.2,0.1-0.2,0.1-0.1-0.1l1.8-2.4
			c0.1-0.2,0.2-0.5,0.1-0.7c0,0-0.4-1.2-0.9-2c-0.4-0.8-1.3-1.9-1.3-1.9c-0.1-0.2-0.3-0.1-0.4,0.1l-0.8,2.6c-0.1,0.2-0.1,0.2-0.1,0
			l0.1-3.6c0-0.2-0.1-0.5-0.3-0.7c0,0-0.5-0.6-1-1c-0.5-0.4-1.2-1.1-1.2-1.1c-0.2-0.1-0.4-0.1-0.6,0c0,0-0.7,0.6-1.2,1.1
			c-0.4,0.4-1,1-1,1c-0.2,0.2-0.3,0.5-0.3,0.7l0.1,3.6c0,0.2,0,0.2-0.1,0l-0.8-2.6c-0.1-0.2-0.2-0.2-0.4-0.1c0,0-0.9,1.2-1.4,2
			c-0.4,0.7-0.8,1.9-0.8,1.9c-0.1,0.2,0,0.5,0.1,0.7l1.8,2.4c0.1,0.2,0.1,0.2-0.1,0.1l-1.9-1.3c-0.2-0.1-0.3,0-0.3,0.2
			c0,0,0,1.4,0.3,2.4C16.5,63.5,17.2,64.5,18.2,65.6z"/>
		<path fill="#388F5B" d="M32.4,70.3l1.5-1.2c0.2-0.1,0.3-0.4,0.3-0.6c0,0,0-0.4,0-0.8c0-0.4,0-0.7,0-0.7c0-0.2-0.2-0.4-0.4-0.5
			c0,0-0.4-0.1-0.8-0.1c-0.4,0-0.7-0.1-0.7-0.1c-0.2,0-0.5,0.1-0.7,0.2l-1.5,1.3c-0.2,0.1-0.2,0.1-0.1-0.1l0.7-1.2
			c0.1-0.2,0-0.3-0.2-0.3c0,0-0.8,0-1.3,0.1c-0.5,0.1-1.1,0.3-1.1,0.3c-0.2,0.1-0.4,0.3-0.4,0.5l-0.3,1.6c0,0.2-0.1,0.2-0.1,0
			l-0.1-1.1c0-0.2-0.2-0.3-0.3-0.1c0,0-0.5,0.5-0.8,1c-0.4,0.6-0.6,1.4-0.7,2.3c0,0.2,0,0.3-0.1,0.5c1.1,0.8,1.8,2,1.9,3.4
			c0.5-0.1,1-0.1,1.5-0.1c0.8,0.1,1.4,0,2-0.2c0.7-0.2,1.4-0.8,1.4-0.8c0.2-0.1,0.1-0.3-0.1-0.4L30.9,73c-0.2-0.1-0.2-0.1,0-0.1
			l1.6-0.1c0.2,0,0.5-0.2,0.6-0.4c0,0,0.3-0.6,0.5-1.1c0.2-0.5,0.3-1.2,0.3-1.2c0-0.2-0.1-0.3-0.3-0.2L32.4,70.3
			C32.2,70.5,32.2,70.5,32.4,70.3z"/>
		<path fill="#388F5B" d="M12.3,70.3l-1.5-1.2c-0.2-0.1-0.3-0.4-0.3-0.6c0,0,0-0.4,0-0.8c0-0.4,0-0.7,0-0.7c0-0.2,0.2-0.4,0.4-0.5
			c0,0,0.4-0.1,0.8-0.1c0.4,0,0.7-0.1,0.7-0.1c0.2,0,0.5,0.1,0.7,0.2l1.5,1.3c0.2,0.1,0.2,0.1,0.1-0.1l-0.7-1.2
			c-0.1-0.2,0-0.3,0.2-0.3c0,0,0.8,0,1.3,0.1c0.5,0.1,1.1,0.3,1.1,0.3c0.2,0.1,0.4,0.3,0.4,0.5l0.3,1.6c0,0.2,0.1,0.2,0.1,0l0.1-1.1
			c0-0.2,0.2-0.3,0.3-0.1c0,0,0.6,0.5,0.8,1c0.4,0.6,0.6,1.4,0.7,2.3c0,0.2,0,0.3,0.1,0.5c-1.1,0.8-1.8,2-1.9,3.4
			c-0.5-0.1-1-0.1-1.5-0.1c-0.8,0.1-1.5,0-2-0.2c-0.7-0.2-1.4-0.8-1.4-0.8c-0.2-0.1-0.1-0.3,0.1-0.4l1.1-0.3c0.2-0.1,0.2-0.1,0-0.1
			l-1.6-0.1c-0.2,0-0.5-0.2-0.6-0.4c0,0-0.3-0.6-0.5-1.1c-0.2-0.5-0.3-1.2-0.3-1.2c0-0.2,0.1-0.3,0.3-0.2L12.3,70.3
			C12.5,70.5,12.5,70.5,12.3,70.3z"/>
	</g>
</g>
</svg>
