<?xml version="1.0" encoding="utf-8"?>
<!-- Generator: Adobe Illustrator 18.0.0, SVG Export Plug-In . SVG Version: 6.00 Build 0)  -->
<!DOCTYPE svg PUBLIC "-//W3C//DTD SVG 1.1//EN" "http://www.w3.org/Graphics/SVG/1.1/DTD/svg11.dtd">
<svg version="1.1" id="Layer_1" xmlns="http://www.w3.org/2000/svg" xmlns:xlink="http://www.w3.org/1999/xlink" x="0px" y="0px"
	 viewBox="0 0 66.5 66.5" enable-background="new 0 0 66.5 66.5" xml:space="preserve">
<path fill="#FFFFFF" stroke="#DEDDDD" stroke-miterlimit="10" d="M60.8,66H5.7c-2.8,0-5.2-2.3-5.2-5.2V5.7c0-2.8,2.3-5.2,5.2-5.2
	h55.1c2.8,0,5.2,2.3,5.2,5.2v55.1C66,63.6,63.6,66,60.8,66z"/>
<g>
	<g>
		<path fill="#388F5C" d="M38.3,53.1c0,2.8-2.3,5.2-5.2,5.2c-2.8,0-5.1-2.3-5.1-5.2c0-2.8,2.3-5.1,5.1-5.1
			C36,47.9,38.3,50.2,38.3,53.1z"/>
		<path fill="#388F5C" d="M25.7,36.1c3.2,3.1,4.7,7.8,5,9.2c0.8-0.2,1.6-0.4,2.4-0.4c0.8,0,1.6,0.1,2.3,0.4c0.4-1.5,1.8-6.1,5-9.2
			c1.8-1.7,2.9-3.4,3.7-5.2C45,29,45.1,26,45.1,26c0-0.4-0.3-0.5-0.6-0.3L41,28.1c-0.3,0.2-0.4,0.1-0.2-0.2l3.4-4.5
			c0.2-0.3,0.3-0.9,0.2-1.2c0,0-0.8-2.2-1.6-3.6c-0.8-1.4-2.4-3.5-2.4-3.5c-0.2-0.3-0.5-0.3-0.7,0.1L38.2,20c-0.1,0.4-0.2,0.4-0.2,0
			l0.2-6.6c0-0.4-0.2-0.9-0.5-1.2c0,0-1-1-1.8-1.8c-0.9-0.8-2.2-1.9-2.2-1.9c-0.3-0.2-0.8-0.2-1.1,0c0,0-1.4,1.1-2.3,1.9
			c-0.8,0.7-1.8,1.7-1.8,1.7c-0.3,0.3-0.5,0.8-0.5,1.2l0.2,6.6c0,0.4-0.1,0.4-0.2,0l-1.5-4.8c-0.1-0.4-0.4-0.4-0.7-0.1
			c0,0-1.7,2.2-2.5,3.7c-0.7,1.4-1.5,3.4-1.5,3.4c-0.1,0.4,0,0.9,0.2,1.2l3.4,4.5c0.2,0.3,0.2,0.4-0.2,0.2l-3.5-2.4
			c-0.3-0.2-0.6-0.1-0.6,0.3c0,0,0,2.6,0.6,4.3C22.6,32.3,23.8,34.2,25.7,36.1z"/>
		<path fill="#388F5C" d="M51.5,44.8l2.8-2.2c0.3-0.2,0.6-0.8,0.6-1.2c0,0,0.1-0.8,0.1-1.5c0-0.7,0-1.3,0-1.3c0-0.4-0.3-0.8-0.7-0.8
			c0,0-0.8-0.1-1.5-0.2c-0.7-0.1-1.3-0.1-1.3-0.1c-0.4,0-1,0.2-1.2,0.4l-2.7,2.4c-0.3,0.3-0.4,0.2-0.2-0.1l1.4-2.2
			c0.2-0.3,0-0.6-0.3-0.6c0,0-1.4,0.1-2.4,0.3c-1,0.2-2,0.6-2,0.6c-0.4,0.1-0.7,0.6-0.8,1L42.5,42c-0.1,0.4-0.2,0.4-0.2,0L42,39.9
			c0-0.4-0.3-0.5-0.6-0.2c0,0-1,0.9-1.5,1.8c-0.7,1.1-1.1,2.5-1.2,4.2c0,0.3-0.1,0.6-0.1,0.9c2,1.4,3.3,3.7,3.4,6.3
			c0.8-0.1,1.8-0.2,2.7-0.1c1.4,0.1,2.6,0,3.7-0.3c1.3-0.4,2.6-1.5,2.6-1.5c0.3-0.2,0.2-0.5-0.1-0.6l-2-0.6c-0.4-0.1-0.4-0.2,0-0.2
			l2.9-0.2c0.4,0,0.9-0.3,1.1-0.7c0,0,0.6-1.1,1-2.1c0.3-0.9,0.6-2.2,0.6-2.2c0.1-0.4-0.1-0.6-0.5-0.4l-2.4,1
			C51.2,45.1,51.2,45,51.5,44.8z"/>
		<path fill="#388F5C" d="M15,44.8l-2.8-2.2c-0.3-0.2-0.6-0.8-0.6-1.2c0,0-0.1-0.8-0.1-1.5c0-0.7,0-1.3,0-1.3c0-0.4,0.3-0.8,0.7-0.8
			c0,0,0.8-0.1,1.5-0.2c0.7-0.1,1.3-0.1,1.3-0.1c0.4,0,1,0.2,1.2,0.4l2.7,2.4c0.3,0.3,0.4,0.2,0.2-0.1l-1.4-2.2
			c-0.2-0.3-0.1-0.6,0.3-0.6c0,0,1.4,0.1,2.4,0.3c1,0.2,2.1,0.6,2.1,0.6c0.4,0.1,0.7,0.6,0.8,1l0.6,2.9c0.1,0.4,0.2,0.4,0.2,0
			l0.2-2.1c0-0.4,0.3-0.5,0.6-0.2c0,0,1,0.9,1.5,1.8c0.7,1.1,1.1,2.5,1.2,4.2c0,0.3,0.1,0.6,0.1,0.9c-2,1.4-3.3,3.7-3.4,6.3
			c-0.8-0.1-1.8-0.2-2.7-0.1c-1.4,0.1-2.6,0-3.7-0.3c-1.3-0.4-2.6-1.5-2.6-1.5c-0.3-0.2-0.2-0.5,0.1-0.6l2-0.6
			c0.4-0.1,0.4-0.2,0-0.2l-2.9-0.2c-0.4,0-0.9-0.3-1.1-0.7c0,0-0.6-1.1-1-2.1c-0.3-0.9-0.6-2.2-0.6-2.2c-0.1-0.4,0.1-0.6,0.5-0.4
			l2.4,1C15.2,45.1,15.3,45,15,44.8z"/>
	</g>
</g>
</svg>
