<?xml version="1.0" encoding="UTF-8"?>
<svg width="31px" height="20px" viewBox="0 0 31 20" version="1.1" xmlns="http://www.w3.org/2000/svg" xmlns:xlink="http://www.w3.org/1999/xlink">
    <!-- Generator: Sketch 45.2 (43514) - http://www.bohemiancoding.com/sketch -->
    <title>Group</title>
    <desc>Created with Sketch.</desc>
    <defs></defs>
    <g id="Symbols" stroke="none" stroke-width="1" fill="none" fill-rule="evenodd">
        <g id="Add-User-Icon" transform="translate(-14.000000, 0.000000)">
            <g id="Group" transform="translate(14.000000, 0.000000)">
                <path d="M19.8566966,17.2536285 C17.3332517,16.1742685 15.7847581,15.3439373 15.1053962,14.946761 C15.1053962,14.946761 14.7597189,14.5199553 14.6722413,14.3598149 C14.5988731,14.2257767 14.4479038,14.1002041 14.2948181,14.1002041 C14.2948181,14.1002041 14.2440246,14.1009096 14.1565471,14.0903276 C13.9872357,14.0691637 13.9590172,14.0388288 13.9505516,14.0077884 C13.7671309,13.3813363 13.6218053,11.9633535 13.6218053,11.9633535 C14.7956975,10.8959864 14.8288543,8.96936411 14.8288543,8.96936411 C14.8994007,9.05754711 15.3480759,10.0296766 15.7135063,7.7037616 C16.0493071,5.56691099 15.5653588,5.78348846 15.3812327,5.82299444 L15.3967529,5.7355169 C15.3967529,5.7355169 15.5956938,4.9348152 15.336083,3.49143576 C15.0292061,1.77997997 14.0260363,1.08580334 13.2824771,0.694270796 C12.5114049,0.287218039 11.6422732,0.0318400531 10.7689087,0.00291602707 C10.6673219,-0.000611293183 10.4634428,-0.00131675723 10.361856,0.00291602707 C9.48849148,0.0367783015 8.61935977,0.287218039 7.84828756,0.694270796 C7.10472845,1.08580334 6.10155857,1.77997997 5.79397625,3.49143576 C5.53507094,4.9348152 5.7340118,5.7355169 5.7340118,5.7355169 L5.74953201,5.82299444 C5.56540589,5.78348846 5.08145756,5.56691099 5.41725844,7.7037616 C5.78268882,10.0296766 6.23136396,9.05754711 6.30261583,8.96936411 C6.30261583,8.96936411 6.33577264,10.8959864 7.50966482,11.9633535 C7.50966482,11.9633535 7.36363376,13.3813363 7.18091857,14.0077884 C7.17174754,14.0388288 7.15552186,14.0649309 6.96151925,14.0910331 C6.87474717,14.103026 6.79009149,14.0987932 6.79009149,14.0987932 C6.63700579,14.0987932 6.46698895,14.2159003 6.41266822,14.358404 L6.02536845,14.946761 C5.1943318,15.3347662 3.79751298,16.1742685 1.27477354,17.2536285 C0.747791893,17.4793769 0.247617882,18.6045921 0,20 L21.1307647,20 C20.9043107,18.6321052 20.3836783,17.4793769 19.8566966,17.2536285" id="Fill-37" fill="#94979F"></path>
                <g id="Add-Button" transform="translate(18.000000, 0.500000)" stroke="#94979F">
                    <circle id="Oval" fill="#FFFFFF" cx="6" cy="6" r="6"></circle>
                    <g id="Group-2" transform="translate(3.054545, 3.054545)" stroke-linecap="square">
                        <path d="M2.94545455,0 L2.94545455,5.82371611" id="Line"></path>
                        <path d="M2.8,2.1485036e-12 L2.8,5.82371611" id="Line" transform="translate(3.000000, 2.945455) rotate(90.000000) translate(-3.000000, -2.945455) "></path>
                    </g>
                </g>
            </g>
        </g>
    </g>
</svg>