<?xml version="1.0" encoding="utf-8"?>
<!-- Generator: Adobe Illustrator 16.0.0, SVG Export Plug-In . SVG Version: 6.00 Build 0)  -->
<!DOCTYPE svg PUBLIC "-//W3C//DTD SVG 1.1//EN" "http://www.w3.org/Graphics/SVG/1.1/DTD/svg11.dtd">
<svg version="1.1" id="Layer_1" xmlns="http://www.w3.org/2000/svg" xmlns:xlink="http://www.w3.org/1999/xlink" x="0px" y="0px"
	 width="24px" height="24px" viewBox="-2 -2 24 24" enable-background="new -2 -2 24 24" xml:space="preserve">
	<path d="M13 11V4c0-.55-.45-1-1-1h-1.67L9 1H5L3.67 3H2c-.55 0-1 .45-1 1v7c0 .55.45 1 1 1h10c.55 0 1-.45 1-1zM7 4.5a2.5 2.5 0 0 1 0 5 2.5 2.5 0 0 1 0-5zM14 6h5v10.5a2.5 2.5 0 0 1-5 0 2.5 2.5 0 0 1 3-2.45V9h-3V6zm-4 8.05V13h2v3.5a2.5 2.5 0 0 1-5 0 2.5 2.5 0 0 1 3-2.45z" fill="#93959D"/>
</svg>

