<?xml version="1.0" encoding="utf-8"?>
<!-- Generator: Adobe Illustrator 16.0.0, SVG Export Plug-In . SVG Version: 6.00 Build 0)  -->
<!DOCTYPE svg PUBLIC "-//W3C//DTD SVG 1.1//EN" "http://www.w3.org/Graphics/SVG/1.1/DTD/svg11.dtd">
<svg version="1.1" id="Layer_1" xmlns="http://www.w3.org/2000/svg" xmlns:xlink="http://www.w3.org/1999/xlink" x="0px" y="0px"
	 width="24px" height="24px" viewBox="-2 -2 24 24" enable-background="new -2 -2 24 24" xml:space="preserve">
<g id="Plugin" display="none">
	<path display="inline" fill="#93959D" d="M4.939,3.42l11.468,11.569c0,0-2.541,2.493-5.233,2.493c0-0.049-6.234,0-6.234,0
		S2.595,21.124,0.7,19.03c0,0-1.845-1.646,1.671-4.114L2.346,9.729C2.346,9.729,2.222,5.167,4.939,3.42z"/>
	<path display="inline" fill="#93959D" d="M9.926,6.711L7.532,4.318l4.017-4.039c0,0,0.971-0.824,2.217,0.348
		c0-0.024,1.022,1.197,0.25,1.946C14.016,2.548,9.926,6.711,9.926,6.711z"/>
	<path display="inline" fill="#93959D" d="M15.586,12.248l-2.395-2.393l4.015-4.041c0,0,0.974-0.823,2.219,0.35
		c0-0.025,1.023,1.196,0.251,1.944C19.676,8.083,15.586,12.248,15.586,12.248z"/>
</g>
<g id="settings" display="none">
	<rect y="0.034" display="inline" fill="#94969E" width="20" height="19.932"/>
	<g id="Down" display="inline">
		<line fill="none" stroke="#FFFFFF" stroke-width="2" stroke-miterlimit="10" x1="6.068" y1="3.426" x2="6.068" y2="16.645"/>
	</g>
	<g id="Down_1_" display="inline">
		<line fill="none" stroke="#FFFFFF" stroke-width="2" stroke-miterlimit="10" x1="14.105" y1="16.645" x2="14.105" y2="3.426"/>
	</g>
	<ellipse display="inline" fill="#FFFFFF" cx="14.167" cy="6.361" rx="4.201" ry="1.001"/>
	<ellipse display="inline" fill="#FFFFFF" cx="6.211" cy="12.77" rx="4.201" ry="1"/>
</g>
<g id="Log" display="none">
	<rect x="1.733" y="2.539" display="inline" fill="#93959D" width="12.485" height="17.041"/>
	<polygon display="inline" fill="#FDFDFE" stroke="#93959D" stroke-miterlimit="10" points="7.976,11.059 8.369,9.511 15.512,0.964 
		18.266,3.775 9.662,11.059 	"/>
</g>
<g id="admin-appearance">
	<path fill="#93959D" d="M6.05,2.742l9.241,8.368l6.421-6.635c0,0-2.727,0.828-4.836,0.153l-5.95-3.653
		C10.926,0.975,8.64-1.281,6.05,2.742z"/>
	<path fill="#93959D" d="M5.355,3.781l8.951,8.413l-2.427,2.719l-3.976-2.92l-6.342,7.551c0,0-3.653,0.93-3.241-2.531
		c-0.031,0.035,6.583-7.271,6.583-7.271L2.101,6.894L5.355,3.781z"/>
</g>
</svg>
