<?xml version="1.0" encoding="UTF-8"?>
<svg width="23px" height="20px" viewBox="0 0 23 20" version="1.1" xmlns="http://www.w3.org/2000/svg" xmlns:xlink="http://www.w3.org/1999/xlink">
    <!-- Generator: Sketch 45.2 (43514) - http://www.bohemiancoding.com/sketch -->
    <title>Comments Outline Icon - Mid</title>
    <desc>Created with Sketch.</desc>
    <defs></defs>
    <g id="Symbols" stroke="none" stroke-width="1" fill="none" fill-rule="evenodd">
        <g id="Show-Comments-Icon" transform="translate(-36.000000, 0.000000)" fill-rule="nonzero" fill="#94979F">
            <g id="Comments-Outline-Icon---Mid" transform="translate(36.000000, 0.000000)">
                <path d="M6.48148148,9.09090909 C5.71481481,9.09090909 5.09259259,8.48090909 5.09259259,7.72727273 C5.09259259,6.97363636 5.71481481,6.36363636 6.48148148,6.36363636 C7.24907407,6.36363636 7.87037037,6.97363636 7.87037037,7.72727273 C7.87037037,8.48090909 7.24907407,9.09090909 6.48148148,9.09090909 Z M11.1111111,9.09090909 C10.3444444,9.09090909 9.72222222,8.48090909 9.72222222,7.72727273 C9.72222222,6.97363636 10.3444444,6.36363636 11.1111111,6.36363636 C11.8787037,6.36363636 12.5,6.97363636 12.5,7.72727273 C12.5,8.48090909 11.8787037,9.09090909 11.1111111,9.09090909 Z M15.7407407,9.09090909 C14.9740741,9.09090909 14.3518519,8.48090909 14.3518519,7.72727273 C14.3518519,6.97363636 14.9740741,6.36363636 15.7407407,6.36363636 C16.5083333,6.36363636 17.1296296,6.97363636 17.1296296,7.72727273 C17.1296296,8.48090909 16.5083333,9.09090909 15.7407407,9.09090909 Z M20.3703704,1.81818182 L20.3703704,13.6363636 L9.58981481,13.6363636 L5.55555556,16.4590909 L5.55555556,13.6363636 L1.85185185,13.6363636 L1.85185185,1.81818182 L20.3703704,1.81818182 Z M22.2222222,0 L0,0 L0,15.4372727 L3.7037037,15.4372727 L3.7037037,20 L10.1851852,15.4372727 L22.2222222,15.4372727 L22.2222222,0 Z" id="Shape"></path>
            </g>
        </g>
    </g>
</svg>