<?xml version="1.0" encoding="UTF-8"?>
<svg width="15px" height="14px" viewBox="0 0 15 14" version="1.1" xmlns="http://www.w3.org/2000/svg" xmlns:xlink="http://www.w3.org/1999/xlink">
    <!-- Generator: Sketch 45 (43475) - http://www.bohemiancoding.com/sketch -->
    <title>Comments Outline Icon</title>
    <desc>Created with Sketch.</desc>
    <defs></defs>
    <g id="Symbols" stroke="none" stroke-width="1" fill="none" fill-rule="evenodd">
        <g id="Side-Menu" transform="translate(-31.000000, -340.000000)" fill-rule="nonzero" fill="#6E7078">
            <g id="Comments-Outline-Icon---Dark" transform="translate(31.000000, 340.000000)">
                <path d="M4.375,6.19791667 C3.8575,6.19791667 3.4375,5.78203646 3.4375,5.26822917 C3.4375,4.75442188 3.8575,4.33854167 4.375,4.33854167 C4.893125,4.33854167 5.3125,4.75442188 5.3125,5.26822917 C5.3125,5.78203646 4.893125,6.19791667 4.375,6.19791667 Z M7.5,6.19791667 C6.9825,6.19791667 6.5625,5.78203646 6.5625,5.26822917 C6.5625,4.75442188 6.9825,4.33854167 7.5,4.33854167 C8.018125,4.33854167 8.4375,4.75442188 8.4375,5.26822917 C8.4375,5.78203646 8.018125,6.19791667 7.5,6.19791667 Z M10.625,6.19791667 C10.1075,6.19791667 9.6875,5.78203646 9.6875,5.26822917 C9.6875,4.75442188 10.1075,4.33854167 10.625,4.33854167 C11.143125,4.33854167 11.5625,4.75442188 11.5625,5.26822917 C11.5625,5.78203646 11.143125,6.19791667 10.625,6.19791667 Z M13.75,1.23958333 L13.75,9.296875 L6.473125,9.296875 L3.75,11.2213281 L3.75,9.296875 L1.25,9.296875 L1.25,1.23958333 L13.75,1.23958333 Z M15,0 L0,0 L0,10.5246823 L2.5,10.5246823 L2.5,13.6354167 L6.875,10.5246823 L15,10.5246823 L15,0 Z" id="Shape"></path>
            </g>
        </g>
    </g>
</svg>