
<svg width="80px" height="80px" viewBox="0 0 80 80" version="1.1" xmlns="http://www.w3.org/2000/svg" xmlns:xlink="http://www.w3.org/1999/xlink">
    <defs>
        <polygon id="path-1" points="0 0.0002 79.0787 0.0002 79.0787 79.0792 0 79.0792"></polygon>
    </defs>
    <g id="Page-1" stroke="none" stroke-width="1" fill="none" fill-rule="evenodd">
        <g id="Group-3">
            <mask id="mask-2" fill="white">
                <use xlink:href="#path-1"></use>
            </mask>
            <g id="Clip-2"></g>
            <path d="M66.2837,45.3032 C65.7077,47.2632 64.9007,49.2232 63.9777,51.0672 C63.0557,52.7962 61.9037,54.6412 60.5197,56.0242 C57.7537,59.0212 54.4097,61.2112 50.6057,62.5952 C46.8027,63.9782 42.3057,64.3242 38.1567,63.7472 C35.9667,63.5172 33.8907,62.9412 31.8167,62.1332 C31.0097,61.7872 30.2017,61.4422 29.5107,61.0962 C29.6257,61.3262 29.7417,61.6722 29.8567,61.9032 C30.4327,63.1712 31.2397,64.4392 32.0467,65.7072 C32.3927,66.1682 32.1617,66.7442 31.7007,66.9752 C31.3547,67.2052 30.8937,67.0902 30.5487,66.8602 C28.3577,65.3622 26.1677,63.8632 24.3237,62.0182 C22.4787,60.2892 20.8647,58.2142 19.3667,56.1392 C17.9827,54.0642 16.9457,51.6442 16.1387,49.2232 C15.3317,46.8022 14.8707,44.2662 14.5247,41.7302 C16.0237,43.1132 17.6377,44.3812 19.4817,45.3032 C21.3257,46.2262 23.1707,47.0322 25.2457,47.4932 C29.1647,48.4152 33.3147,48.5312 37.2347,47.4932 C37.6957,47.3782 38.1567,47.6092 38.3867,48.0702 C38.5017,48.4152 38.3867,48.6462 38.2717,48.8762 C37.6957,49.5692 37.0037,50.1452 36.4277,50.7212 C35.7357,51.2972 35.0437,51.7592 34.4677,52.3352 C33.6607,52.9112 32.8537,53.3722 32.0467,53.9492 C34.5827,54.7562 37.1187,55.3322 39.7697,55.6782 C42.9977,56.0242 46.4557,55.9082 49.5687,54.9872 C52.6807,54.0642 55.5627,52.7962 57.9837,50.8362 C60.4047,48.8762 62.4797,46.3412 64.0937,43.4582 C64.5547,42.7672 65.3617,42.5362 65.9377,42.9972 C66.2837,43.6902 66.5137,44.4962 66.2837,45.3032 M12.6797,35.7352 C12.1037,35.2742 11.9887,34.3522 12.2197,33.6602 C12.9107,31.7002 13.7177,29.8562 14.7557,28.1272 C15.7927,26.3982 16.9457,24.7842 18.2137,23.2852 C20.9797,20.2882 24.2077,18.0982 27.8967,16.5992 C31.7007,15.1012 36.1967,14.6402 40.3467,15.2162 C42.5367,15.4472 44.6117,16.0232 46.5717,16.8302 C47.3787,17.1762 48.0707,17.5222 48.7617,17.8672 C48.6467,17.6372 48.5317,17.2912 48.4157,17.0612 C47.8397,15.7932 47.0327,14.5252 46.2257,13.2572 C45.8797,12.7952 46.1107,12.2192 46.5717,11.9892 C46.9177,11.7582 47.3787,11.8732 47.7237,12.1042 C49.9147,13.4872 52.1047,15.1012 53.9497,16.9452 C55.7937,18.6752 57.4077,20.6342 58.9067,22.8242 C60.2897,24.8992 61.3267,27.3202 62.1337,29.7412 C62.9407,32.1622 63.4017,34.6982 63.7477,37.2342 C62.2487,35.8502 60.6357,34.5822 58.7907,33.6602 C56.9467,32.7382 54.9867,31.9312 53.0267,31.4702 C49.1077,30.5482 44.9577,30.4322 41.0377,31.4702 C40.5767,31.5852 40.1167,31.3552 39.8857,30.8942 C39.7697,30.5482 39.8857,30.3172 40.0007,30.0872 C40.5767,29.3952 41.2687,28.8192 41.8457,28.3582 C42.5367,27.7812 43.2287,27.3202 43.8047,26.7442 C44.6117,26.1672 45.4187,25.5912 46.2257,25.1302 C43.6897,24.2082 41.1537,23.5162 38.5017,23.1702 C35.2747,22.7092 31.8167,22.8242 28.7037,23.7462 C25.5917,24.6692 22.8247,26.2822 20.4037,28.2422 C17.9827,30.3172 15.9087,32.8532 14.0637,35.6202 C14.1787,36.0812 13.3717,36.3122 12.6797,35.7352 M39.5397,0.0002 C17.6377,0.0002 -0.0003,17.6372 -0.0003,39.5392 C-0.0003,61.3262 17.6377,79.0792 39.5397,79.0792 C61.3267,79.0792 79.0787,61.4422 79.0787,39.5392 C78.9637,17.6372 61.3267,0.0002 39.5397,0.0002" id="Fill-1" fill="#8F8F8F" mask="url(#mask-2)"></path>
        </g>
    </g>
</svg>