<?xml version="1.0" encoding="UTF-8"?>
<svg width="20px" height="20px" viewBox="0 0 20 20" version="1.1" xmlns="http://www.w3.org/2000/svg" xmlns:xlink="http://www.w3.org/1999/xlink">
    <!-- Generator: Sketch 48.1 (47250) - http://www.bohemiancoding.com/sketch -->
    <title>Fullscreen Icon - Light</title>
    <desc>Created with Sketch.</desc>
    <defs></defs>
    <g id="Symbols" stroke="none" stroke-width="1" fill="none" fill-rule="evenodd">
        <g id="Fullscreen-Icon---Light" fill="#C6C9D4">
            <path d="M18,18 L18,13 L20,13 L20,19 L20,20 L13,20 L13,18 L18,18 Z M0,19 L0,13 L2,13 L2,18 L7,18 L7,20 L0,20 L0,19 Z M20,1 L20,7 L18,7 L18,2 L13,2 L13,0 L20,0 L20,1 Z M2,2 L2,7 L0,7 L0,1 L0,0 L7,0 L7,2 L2,2 Z" id="Combined-Shape"></path>
        </g>
    </g>
</svg>