<?xml version="1.0" encoding="UTF-8"?>
<svg width="16px" height="16px" viewBox="0 0 16 16" version="1.1" xmlns="http://www.w3.org/2000/svg" xmlns:xlink="http://www.w3.org/1999/xlink">
    <!-- Generator: Sketch 45 (43475) - http://www.bohemiancoding.com/sketch -->
    <title>Tools Outline Icon</title>
    <desc>Created with Sketch.</desc>
    <defs></defs>
    <g id="Symbols" stroke="none" stroke-width="1" fill="none" fill-rule="evenodd">
        <g id="Side-Menu" transform="translate(-31.000000, -484.000000)" fill-rule="nonzero" fill="#64656A">
            <g id="Tools-Outline-Icon" transform="translate(31.000000, 484.000000)">
                <path d="M13.5146667,16 C12.8526667,16 12.23,15.742 11.762,15.274 L5.85666667,9.36866667 C5.592,9.104 5.21466667,8.962 4.842,8.99333333 C3.52933333,9.09466667 2.23933333,8.62 1.30666667,7.68666667 C0.294,6.67333333 0,5.49866667 0,4.48266667 C0,3.38333333 0.344666667,2.47066667 0.495333333,2.152 L3.42133333,5.078 C3.79333333,5.04866667 4.30733333,4.718 4.668,4.27133333 C4.90466667,3.978 5.05133333,3.66533333 5.07133333,3.42666667 L2.14466667,0.5 C2.806,0.218666667 3.70733333,0 4.50466667,0 C5.70533333,0 6.834,0.466 7.68133333,1.31266667 C8.61266667,2.24533333 9.08866667,3.534 8.98666667,4.84866667 C8.958,5.22533333 9.09466667,5.59533333 9.362,5.86266667 L15.268,11.7686667 C15.756,12.2573333 16,12.8893333 16,13.522 C16,14.1446667 15.7633333,14.768 15.2866667,15.2546667 C14.8166667,15.7353333 14.1873333,16 13.5146667,16 L13.5146667,16 Z M4.942,7.65733333 C5.63266667,7.65733333 6.30933333,7.938 6.79866667,8.42666667 L12.704,14.332 C13.1413333,14.7693333 13.9033333,14.7646667 14.3353333,14.3233333 C14.5526667,14.1013333 14.6686667,13.8073333 14.662,13.496 C14.6553333,13.2 14.536,12.92 14.326,12.71 L8.42066667,6.80466667 C7.878,6.26333333 7.60066667,5.51266667 7.65866667,4.74666667 C7.73066667,3.81933333 7.39533333,2.912 6.73933333,2.25533333 C6.23333333,1.74933333 5.584,1.436 4.882,1.35333333 L6.324,2.79533333 C6.478,3.50533333 6.41533333,4.22666667 5.70466667,5.10733333 C4.968,6.02066667 3.978,6.58866667 2.78933333,6.32933333 L1.348,4.888 C1.43133333,5.58066667 1.74066667,6.23666667 2.24933333,6.74533333 C2.906,7.40266667 3.814,7.73933333 4.74,7.66533333 L4.942,7.65733333 L4.942,7.65733333 Z M14.106,13.5 C14.106,13.838 13.8326667,14.1113333 13.4946667,14.1113333 C13.1573333,14.1113333 12.8833333,13.8373333 12.8833333,13.5 C12.8833333,13.1626667 13.1566667,12.8886667 13.4946667,12.8886667 C13.8326667,12.8893333 14.106,13.1626667 14.106,13.5 Z" id="Shape"></path>
            </g>
        </g>
    </g>
</svg>