<?xml version="1.0" encoding="UTF-8"?>
<svg width="19px" height="14px" viewBox="0 0 19 14" version="1.1" xmlns="http://www.w3.org/2000/svg" xmlns:xlink="http://www.w3.org/1999/xlink">
    <!-- Generator: Sketch 45 (43475) - http://www.bohemiancoding.com/sketch -->
    <title>Updates Outline Icon</title>
    <desc>Created with Sketch.</desc>
    <defs></defs>
    <g id="Symbols" stroke="none" stroke-width="1" fill="none" fill-rule="evenodd">
        <g id="Side-Menu" transform="translate(-29.000000, -289.000000)" fill-rule="nonzero" fill="#6E7078">
            <g id="Updates-Outline-Icon---Dark" transform="translate(29.000000, 289.000000)">
                <path d="M16.5806667,7.76144444 C16.1935417,11.2684444 13.17175,14 9.5,14 C7.36408333,14 5.453,13.0713333 4.14595833,11.6083333 L5.13158333,10.3382222 C6.14729167,11.6176667 7.72508333,12.4444444 9.5,12.4444444 C12.2914167,12.4444444 14.6015,10.4035556 14.9807083,7.76144444 L12.6666667,7.76144444 L15.8333333,3.67811111 L19,7.76144444 L16.5806667,7.76144444 Z M4.02166667,6.22222222 C4.40720833,3.58788889 6.71333333,1.55555556 9.5,1.55555556 C11.2709583,1.55555556 12.8471667,2.37922222 13.8620833,3.654 L14.8469167,2.38466667 C13.5406667,0.925555556 11.6319583,0 9.5,0 C5.833,0 2.81595833,2.723 2.42170833,6.22222222 L-5.91645679e-31,6.22222222 L3.16666667,10.3055556 L6.33333333,6.22222222 L4.02166667,6.22222222 L4.02166667,6.22222222 Z" id="Shape"></path>
            </g>
        </g>
    </g>
</svg>