<?xml version="1.0" encoding="UTF-8"?>
<svg width="22px" height="20px" viewBox="0 0 22 20" version="1.1" xmlns="http://www.w3.org/2000/svg" xmlns:xlink="http://www.w3.org/1999/xlink">
    <!-- Generator: Sketch 45.2 (43514) - http://www.bohemiancoding.com/sketch -->
    <title>Fill 37</title>
    <desc>Created with Sketch.</desc>
    <defs></defs>
    <g id="Symbols" stroke="none" stroke-width="1" fill="none" fill-rule="evenodd">
        <g id="Show-Users-Icon" transform="translate(-21.000000, 0.000000)" fill="#94979F">
            <path d="M40.8566966,17.2536285 C38.3332517,16.1742685 36.7847581,15.3439373 36.1053962,14.946761 C36.1053962,14.946761 35.7597189,14.5199553 35.6722413,14.3598149 C35.5988731,14.2257767 35.4479038,14.1002041 35.2948181,14.1002041 C35.2948181,14.1002041 35.2440246,14.1009096 35.1565471,14.0903276 C34.9872357,14.0691637 34.9590172,14.0388288 34.9505516,14.0077884 C34.7671309,13.3813363 34.6218053,11.9633535 34.6218053,11.9633535 C35.7956975,10.8959864 35.8288543,8.96936411 35.8288543,8.96936411 C35.8994007,9.05754711 36.3480759,10.0296766 36.7135063,7.7037616 C37.0493071,5.56691099 36.5653588,5.78348846 36.3812327,5.82299444 L36.3967529,5.7355169 C36.3967529,5.7355169 36.5956938,4.9348152 36.336083,3.49143576 C36.0292061,1.77997997 35.0260363,1.08580334 34.2824771,0.694270796 C33.5114049,0.287218039 32.6422732,0.0318400531 31.7689087,0.00291602707 C31.6673219,-0.000611293183 31.4634428,-0.00131675723 31.361856,0.00291602707 C30.4884915,0.0367783015 29.6193598,0.287218039 28.8482876,0.694270796 C28.1047285,1.08580334 27.1015586,1.77997997 26.7939762,3.49143576 C26.5350709,4.9348152 26.7340118,5.7355169 26.7340118,5.7355169 L26.749532,5.82299444 C26.5654059,5.78348846 26.0814576,5.56691099 26.4172584,7.7037616 C26.7826888,10.0296766 27.231364,9.05754711 27.3026158,8.96936411 C27.3026158,8.96936411 27.3357726,10.8959864 28.5096648,11.9633535 C28.5096648,11.9633535 28.3636338,13.3813363 28.1809186,14.0077884 C28.1717475,14.0388288 28.1555219,14.0649309 27.9615192,14.0910331 C27.8747472,14.103026 27.7900915,14.0987932 27.7900915,14.0987932 C27.6370058,14.0987932 27.466989,14.2159003 27.4126682,14.358404 L27.0253685,14.946761 C26.1943318,15.3347662 24.797513,16.1742685 22.2747735,17.2536285 C21.7477919,17.4793769 21.2476179,18.6045921 21,20 L42.1307647,20 C41.9043107,18.6321052 41.3836783,17.4793769 40.8566966,17.2536285" id="Fill-37"></path>
        </g>
    </g>
</svg>