<?xml version="1.0" encoding="UTF-8"?>
<svg width="20px" height="20px" viewBox="0 0 20 20" version="1.1" xmlns="http://www.w3.org/2000/svg" xmlns:xlink="http://www.w3.org/1999/xlink">
    <!-- Generator: Sketch 45.2 (43514) - http://www.bohemiancoding.com/sketch -->
    <title>WordPress Logo</title>
    <desc>Created with Sketch.</desc>
    <defs></defs>
    <g id="Symbols" stroke="none" stroke-width="1" fill="none" fill-rule="evenodd">
        <g id="WP-Dashboard-Icon" transform="translate(-28.000000, 0.000000)" fill="#94979F">
            <g id="WordPress-Outline-Logo---Mid" transform="translate(28.000000, 0.000000)">
                <path d="M17.8892175,5.68642494 C18.5910127,6.96694726 18.9903757,8.4364633 18.9903757,9.99962963 C18.9903757,13.3165433 17.1928191,16.212401 14.5199232,17.7708054 L17.2659404,9.83116491 C17.7788477,8.5485262 17.9496405,7.52292316 17.9496405,6.61097031 C17.9496405,6.27996677 17.9278417,5.97277263 17.8892175,5.68642494 L17.8892175,5.68642494 Z M11.2388823,5.78430802 C11.7801493,5.75584256 12.2678716,5.69891165 12.2678716,5.69891165 C12.7523135,5.64155745 12.6951709,4.92960355 12.2105174,4.95796319 C12.2105174,4.95796319 10.7542288,5.07224829 9.81412797,5.07224829 C8.9307464,5.07224829 7.44630981,4.95796319 7.44630981,4.95796319 C6.96144465,4.92960355 6.90461955,5.67023455 7.38927307,5.69891165 C7.38927307,5.69891165 7.84789498,5.75584256 8.33233687,5.78430802 L9.73296438,9.62227713 L7.7651441,15.5230925 L4.49129899,5.78430802 C5.03298924,5.75584256 5.52018243,5.69891165 5.52018243,5.69891165 C6.00430686,5.64155745 5.9471643,4.92960355 5.46272242,4.95796319 C5.46272242,4.95796319 4.00675129,5.07224829 3.06654462,5.07224829 C2.89786827,5.07224829 2.69903334,5.06812133 2.48792334,5.06134888 C4.09553389,2.62072687 6.85869387,1.00898937 9.99984127,1.00898937 C12.340358,1.00898937 14.4715636,1.90390527 16.0710261,3.36950598 C16.0322961,3.36717795 15.9945185,3.36231025 15.9546246,3.36231025 C15.0714546,3.36231025 14.4447913,4.13161835 14.4447913,4.95796319 C14.4447913,5.69891165 14.8723023,6.32578664 15.3279612,7.06662928 C15.6698642,7.66546209 16.0692271,8.43466437 16.0692271,9.54619288 C16.0692271,10.3156068 15.7732499,11.2086179 15.3851038,12.4526325 L14.4880715,15.448913 L11.2388823,5.78430802 Z M9.99984127,18.9910106 C9.11730626,18.9910106 8.26556473,18.8615933 7.45985471,18.6246634 L10.157724,10.7860805 L12.9210957,18.3573632 C12.9392966,18.4018074 12.9616245,18.4427596 12.9854339,18.4812779 C12.0509415,18.8102708 11.0468199,18.9910106 9.99984127,18.9910106 L9.99984127,18.9910106 Z M1.00920101,9.99962963 C1.00920101,8.69614446 1.28877625,7.45879651 1.78771541,6.34070719 L6.07647579,18.0911212 C3.07702076,16.6339861 1.00920101,13.558341 1.00920101,9.99962963 L1.00920101,9.99962963 Z M9.99984127,0 C4.48590219,0 0,4.48579637 0,9.99962963 C0,15.5136745 4.48590219,20 9.99984127,20 C15.5136745,20 19.9997884,15.5136745 19.9997884,9.99962963 C19.9997884,4.48579637 15.5136745,0 9.99984127,0 L9.99984127,0 Z" id="wordpress-logo-icon"></path>
            </g>
        </g>
    </g>
</svg>