<?xml version="1.0" encoding="utf-8"?>
<!-- Generator: Adobe Illustrator 16.0.0, SVG Export Plug-In . SVG Version: 6.00 Build 0)  -->
<!DOCTYPE svg PUBLIC "-//W3C//DTD SVG 1.1//EN" "http://www.w3.org/Graphics/SVG/1.1/DTD/svg11.dtd">
<svg version="1.1" id="Layer_1" xmlns="http://www.w3.org/2000/svg" xmlns:xlink="http://www.w3.org/1999/xlink" x="0px" y="0px"
	 width="20px" height="20px" viewBox="0 0 20 20" enable-background="new 0 0 20 20" xml:space="preserve">
<g id="Plugin" display="none">
	<path display="inline" fill="#93959D" d="M4.939,3.42l11.468,11.569c0,0-2.541,2.494-5.233,2.494c0-0.05-6.234,0-6.234,0
		S2.595,21.124,0.7,19.03c0,0-1.845-1.646,1.671-4.114L2.346,9.729C2.346,9.729,2.222,5.167,4.939,3.42z"/>
	<path display="inline" fill="#93959D" d="M9.926,6.711L7.532,4.318l4.017-4.039c0,0,0.971-0.824,2.217,0.348
		c0-0.024,1.022,1.197,0.249,1.946C14.015,2.548,9.926,6.711,9.926,6.711z"/>
	<path display="inline" fill="#93959D" d="M15.586,12.248l-2.394-2.393l4.014-4.041c0,0,0.974-0.823,2.219,0.35
		c0-0.025,1.023,1.196,0.251,1.944C19.676,8.083,15.586,12.248,15.586,12.248z"/>
</g>
<g id="settings" display="none">
	<rect y="0.034" display="inline" fill="#94969E" width="20" height="19.932"/>
	<g id="Down" display="inline">
		<line fill="none" stroke="#FFFFFF" stroke-width="2" stroke-miterlimit="10" x1="6.068" y1="3.426" x2="6.068" y2="16.645"/>
	</g>
	<g id="Down_1_" display="inline">
		<line fill="none" stroke="#FFFFFF" stroke-width="2" stroke-miterlimit="10" x1="14.105" y1="16.645" x2="14.105" y2="3.426"/>
	</g>
	<ellipse display="inline" fill="#FFFFFF" cx="14.167" cy="6.361" rx="4.201" ry="1.001"/>
	<ellipse display="inline" fill="#FFFFFF" cx="6.211" cy="12.769" rx="4.201" ry="1"/>
</g>
<g>
	<g>
		<path fill="#94969D" d="M19.695,11.509V8.14h-2.638c-0.19-0.853-0.55-1.649-1.011-2.346l1.752-1.751l-2.379-2.38l-1.853,1.852
			c-0.585-0.337-1.212-0.595-1.874-0.741V0.417H8.326v2.357C7.619,2.943,6.945,3.212,6.339,3.583l-1.92-1.919l-2.38,2.38
			l1.875,1.875C3.476,6.591,3.151,7.343,2.971,8.14H0.333v3.369h2.638c0.157,0.662,0.404,1.288,0.729,1.86l-1.897,1.898l2.391,2.379
			l1.796-1.796c0.696,0.461,1.481,0.81,2.335,1.009v2.64h3.368v-2.638c0.797-0.18,1.549-0.507,2.221-0.942l1.978,1.964l2.379-2.381
			l-2.021-2.02c0.37-0.606,0.651-1.269,0.809-1.975L19.695,11.509L19.695,11.509z M13.712,10.958
			c-0.056,0.191-0.122,0.382-0.212,0.551c-0.382,0.784-1.021,1.424-1.807,1.806v0.37l-0.259-0.259
			c-0.438,0.169-0.909,0.27-1.414,0.27c-0.55,0-1.066-0.111-1.549-0.326l-0.146,0.146v-0.213c-0.786-0.37-1.415-1.01-1.796-1.795
			c-0.112-0.225-0.202-0.461-0.258-0.708c-0.09-0.303-0.135-0.64-0.135-0.977c0-0.494,0.09-0.977,0.27-1.415l-0.27-0.27h0.393
			C6.9,7.354,7.54,6.713,8.326,6.332c0.179-0.09,0.359-0.157,0.55-0.213c0.37-0.124,0.752-0.18,1.145-0.18
			c0.348,0,0.675,0.045,0.988,0.135c0.248,0.056,0.472,0.146,0.685,0.258c0.797,0.371,1.436,1.01,1.818,1.807h0.19l-0.136,0.136
			c0.214,0.483,0.326,0.999,0.326,1.549C13.893,10.217,13.835,10.599,13.712,10.958z"/>
	</g>
</g>
</svg>
