<?xml version="1.0" encoding="utf-8"?>
<!-- Generator: Adobe Illustrator 16.0.0, SVG Export Plug-In . SVG Version: 6.00 Build 0)  -->
<!DOCTYPE svg PUBLIC "-//W3C//DTD SVG 1.1//EN" "http://www.w3.org/Graphics/SVG/1.1/DTD/svg11.dtd">
<svg version="1.1" id="Layer_1" xmlns="http://www.w3.org/2000/svg" xmlns:xlink="http://www.w3.org/1999/xlink" x="0px" y="0px"
	 width="25px" height="25px" viewBox="0 0 25 25" enable-background="new 0 0 25 25" xml:space="preserve">
<g>
	<path fill="#94969F" d="M13.163,4.03l2.203-2.156l7.641,7.594l-2.203,2.203c-0.656-0.406-1.367-0.578-2.133-0.516
		c-0.766,0.063-1.414,0.375-1.945,0.938l-0.938,0.891c-0.531,0.562-0.836,1.226-0.914,1.992c-0.078,0.767,0.086,1.477,0.492,2.133
		l-2.156,2.156l-2.906-2.906l-3.375,3.375c-0.219,0.219-0.641,0.563-1.266,1.031c-0.781,0.563-1.453,1.001-2.016,1.313
		c-0.688,0.406-1.109,0.539-1.266,0.398c-0.157-0.141-0.031-0.569,0.375-1.289c0.313-0.563,0.75-1.219,1.313-1.969
		c0.469-0.656,0.813-1.094,1.031-1.313l3.375-3.328L5.569,11.67l2.203-2.203c0.625,0.406,1.32,0.579,2.086,0.516
		c0.766-0.063,1.43-0.375,1.992-0.938l0.891-0.891c0.563-0.563,0.883-1.226,0.961-1.992C13.78,5.397,13.601,4.686,13.163,4.03z"/>
</g>
</svg>
