<?xml version="1.0" encoding="utf-8"?>
<!-- Generator: Adobe Illustrator 16.0.0, SVG Export Plug-In . SVG Version: 6.00 Build 0)  -->
<!DOCTYPE svg PUBLIC "-//W3C//DTD SVG 1.1//EN" "http://www.w3.org/Graphics/SVG/1.1/DTD/svg11.dtd">
<svg version="1.1" id="Layer_1" xmlns="http://www.w3.org/2000/svg" xmlns:xlink="http://www.w3.org/1999/xlink" x="0px" y="0px"
	 width="25px" height="25px" viewBox="0 0 25 25" enable-background="new 0 0 25 25" xml:space="preserve">
<g>
	<path fill="#94979D" d="M14.578,5.35c1.094,1.125,1.719,2.461,1.875,4.008s-0.188,2.961-1.031,4.242l0.422,0.375
		c0.281,0.219,0.609,0.453,0.984,0.703l0.797,0.563c0.5,0.375,0.875,0.688,1.125,0.938c0.406,0.406,0.75,0.813,1.031,1.219
		s0.508,0.828,0.68,1.266s0.25,0.844,0.234,1.219s-0.156,0.688-0.422,0.938s-0.594,0.391-0.984,0.422s-0.789-0.039-1.195-0.211
		s-0.82-0.406-1.242-0.703s-0.82-0.633-1.195-1.008c-0.281-0.281-0.594-0.656-0.938-1.125L13.5,16.459
		c-0.188-0.25-0.375-0.453-0.563-0.609c-1.25,0.656-2.586,0.883-4.008,0.68s-2.648-0.82-3.68-1.852
		c-0.844-0.844-1.414-1.835-1.711-2.977c-0.297-1.141-0.297-2.273,0-3.398S4.406,6.193,5.25,5.35s1.828-1.414,2.953-1.711
		c1.125-0.297,2.258-0.297,3.398,0C12.742,3.936,13.734,4.506,14.578,5.35z M12.891,12.99c0.813-0.813,1.219-1.805,1.219-2.977
		s-0.414-2.164-1.242-2.977c-0.828-0.813-1.82-1.219-2.977-1.219S7.75,6.225,6.938,7.037C6.125,7.85,5.719,8.842,5.719,10.014
		s0.406,2.164,1.219,2.977s1.797,1.219,2.953,1.219S12.047,13.803,12.891,12.99z"/>
</g>
</svg>
