<?xml version="1.0" encoding="utf-8"?>
<!-- Generator: Adobe Illustrator 16.0.0, SVG Export Plug-In . SVG Version: 6.00 Build 0)  -->
<!DOCTYPE svg PUBLIC "-//W3C//DTD SVG 1.1//EN" "http://www.w3.org/Graphics/SVG/1.1/DTD/svg11.dtd">
<svg version="1.1" id="Layer_1" xmlns="http://www.w3.org/2000/svg" xmlns:xlink="http://www.w3.org/1999/xlink" x="0px" y="0px"
	 width="24px" height="24px" viewBox="-2 -2 24 24" enable-background="new -2 -2 24 24" xml:space="preserve">
<g id="Adimin" display="none">
	<path display="inline" fill="#414141" d="M11.689,3.541c0,2.146-1.396,3.885-2.813,3.885c-1.414,0-2.893-1.739-2.893-3.885
		c0-2.145,1.438-3.265,2.852-3.265C10.254,0.276,11.689,1.396,11.689,3.541z"/>
	<path display="inline" fill="#414141" d="M8.178,10.359c0,0-0.125-1.983-2.935-1.901c-0.042,0-3.596,0.002-3.638,2.646
		c-0.041,0.041,0,4.586,0,4.586s3.555,0.992,7.232,1.033c0-0.082,4.218,0,7.19-0.949v-4.588c0,0-2.271-5.497-6.776-0.992
		c-0.041,0.041,2.217,3.933-0.414,5.47C8.85,15.663,6.359,14.823,8.178,10.359z"/>
</g>
<g id="Plugin" display="none">
	<path display="inline" fill="#323232" d="M4.143,3.072l9.701,9.785c0,0-2.15,2.107-4.429,2.107c0-0.042-5.272,0-5.272,0
		s-1.982,3.079-3.585,1.309c0,0-1.561-1.394,1.413-3.479L1.95,8.407C1.95,8.407,1.844,4.548,4.143,3.072z"/>
	<path display="inline" fill="#323232" d="M8.361,5.855L6.336,3.831L9.73,0.414c0,0,0.825-0.696,1.877,0.295
		c0-0.021,0.865,1.012,0.213,1.645C11.82,2.334,8.361,5.855,8.361,5.855z"/>
	<path display="inline" fill="#323232" d="M13.148,10.537l-2.025-2.024l3.396-3.417c0,0,0.82-0.696,1.877,0.295
		c0-0.021,0.865,1.012,0.211,1.645C16.605,7.015,13.148,10.537,13.148,10.537z"/>
</g>
<path display="none" fill="none" stroke="#282828" stroke-width="2" stroke-miterlimit="10" d="M15.52,9.832
	c0-3.878-3.144-7.021-7.02-7.021c-3.877,0-7.02,3.143-7.02,7.021c0,1.275,0.34,2.469,0.933,3.499h12.172
	C15.18,12.301,15.52,11.107,15.52,9.832z"/>
<circle display="none" fill="#242424" cx="8.778" cy="9.736" r="1.474"/>
<path display="none" fill="#242424" d="M13.25,10.089c0,0.226-0.184,0.407-0.408,0.407h-2.71c-0.224,0-0.407-0.182-0.407-0.407
	V9.373c0-0.225,0.185-0.406,0.407-0.406h2.71c0.227,0,0.408,0.182,0.408,0.406V10.089z"/>
<g display="none">
	<g display="inline">
		<path fill="#323232" d="M17.125,9.881V6.88h-2.35c-0.17-0.76-0.49-1.47-0.9-2.09l1.561-1.56l-2.119-2.12l-1.649,1.65
			c-0.521-0.3-1.08-0.53-1.67-0.66V0h-3v2.1c-0.63,0.15-1.23,0.39-1.77,0.72l-1.71-1.71l-2.12,2.12l1.67,1.67
			c-0.39,0.6-0.68,1.27-0.84,1.98h-2.35v3.001h2.35c0.14,0.59,0.36,1.148,0.65,1.658l-1.69,1.691l2.13,2.119l1.6-1.602
			c0.62,0.41,1.32,0.721,2.08,0.898V17h3v-2.35c0.71-0.16,1.38-0.451,1.979-0.84l1.762,1.75l2.119-2.121l-1.801-1.799
			c0.33-0.541,0.58-1.133,0.721-1.762L17.125,9.881L17.125,9.881z M11.795,9.391c-0.05,0.17-0.109,0.34-0.189,0.49
			c-0.34,0.699-0.91,1.27-1.608,1.609v0.33l-0.23-0.23c-0.39,0.15-0.81,0.24-1.26,0.24c-0.49,0-0.95-0.1-1.38-0.291l-0.13,0.131
			V11.48c-0.7-0.33-1.26-0.9-1.6-1.602c-0.1-0.2-0.18-0.41-0.23-0.631c-0.08-0.27-0.12-0.57-0.12-0.87c0-0.44,0.08-0.87,0.24-1.26
			l-0.24-0.24h0.35c0.33-0.7,0.9-1.27,1.6-1.61c0.16-0.08,0.32-0.14,0.49-0.19c0.33-0.11,0.67-0.16,1.02-0.16
			c0.31,0,0.602,0.04,0.881,0.12c0.221,0.05,0.42,0.13,0.609,0.23c0.71,0.33,1.278,0.9,1.62,1.61h0.17L11.665,7
			c0.19,0.43,0.29,0.89,0.29,1.38C11.955,8.73,11.904,9.07,11.795,9.391z"/>
	</g>
</g>
<g display="none">
	
		<line display="inline" fill="none" stroke="#242424" stroke-width="3" stroke-miterlimit="10" x1="8.625" y1="0.312" x2="8.625" y2="17.313"/>
	
		<line display="inline" fill="none" stroke="#242424" stroke-width="3" stroke-miterlimit="10" x1="0" y1="8.687" x2="17.25" y2="8.687"/>
	
		<line display="inline" fill="none" stroke="#242424" stroke-width="3" stroke-miterlimit="10" x1="2.583" y1="2.479" x2="14.916" y2="14.813"/>
	
		<line display="inline" fill="none" stroke="#242424" stroke-width="3" stroke-miterlimit="10" x1="10.553" y1="6.432" x2="1.729" y2="15.256"/>
	<path display="inline" fill="#FFFFFF" stroke="#242424" stroke-width="3" stroke-miterlimit="10" d="M9.885,10.95
		c0,1.991-1.614,3.608-3.607,3.608l0,0c-1.993,0-3.609-1.617-3.609-3.608l0,0c0-1.993,1.616-3.608,3.609-3.608l0,0
		C8.271,7.342,9.885,8.957,9.885,10.95L9.885,10.95z"/>
</g>
<g id="admin-appearance" display="none">
	<path display="inline" fill="#323232" d="M5.957,3.569l6.186,6.185l4.73-4.426c0,0-1.939,0.485-3.396-0.061L9.438,2.5
		C9.438,2.5,7.913,0.84,5.957,3.569z"/>
	<path display="inline" fill="#323232" d="M5.434,4.272l5.981,6.208L9.618,12.3l-2.683-2.184l-4.708,5.069
		c0,0-2.593,0.522-2.184-1.888C0.021,13.322,4.91,8.432,4.91,8.432l-1.864-2.09L5.434,4.272z"/>
</g>
<g>
	<rect x="-0.822" y="1.082" fill="#93959D" width="15.107" height="20.617"/>
	<polygon fill="#FDFDFE" stroke="#93959D" stroke-miterlimit="10" points="6.73,11.392 7.205,9.519 15.847,-0.823 19.183,2.58 
		8.77,11.392 	"/>
</g>
<g id="settings" display="none">
	<rect display="inline" fill="#94969E" width="17.059" height="17"/>
	<g id="Down" display="inline">
		<line fill="none" stroke="#FFFFFF" stroke-width="2" stroke-miterlimit="10" x1="5.175" y1="2.893" x2="5.175" y2="14.167"/>
	</g>
	<g id="Down_1_" display="inline">
		<line fill="none" stroke="#FFFFFF" stroke-width="2" stroke-miterlimit="10" x1="12.031" y1="14.167" x2="12.031" y2="2.893"/>
	</g>
	<ellipse display="inline" fill="#FFFFFF" cx="12.083" cy="5.396" rx="3.583" ry="0.854"/>
	<ellipse display="inline" fill="#FFFFFF" cx="5.297" cy="10.861" rx="3.583" ry="0.854"/>
</g>
</svg>
