<?xml version="1.0" encoding="UTF-8"?>
<svg width="16px" height="14px" viewBox="0 0 16 14" version="1.1" xmlns="http://www.w3.org/2000/svg" xmlns:xlink="http://www.w3.org/1999/xlink">
    <!-- Generator: Sketch 45 (43475) - http://www.bohemiancoding.com/sketch -->
    <title>Bacups Outline Icon</title>
    <desc>Created with Sketch.</desc>
    <defs></defs>
    <g id="Symbols" stroke="none" stroke-width="1" fill="none" fill-rule="evenodd">
        <g id="Side-Menu" transform="translate(-30.000000, -241.000000)" fill-rule="nonzero" fill="#6E7078">
            <g id="Bacups-Outline-Icon---Dark" transform="translate(30.000000, 241.000000)">
                <path d="M13.3333333,11 C13.3333333,11.184 13.184,11.3333333 13,11.3333333 C12.816,11.3333333 12.6666667,11.184 12.6666667,11 C12.6666667,10.816 12.816,10.6666667 13,10.6666667 C13.184,10.6666667 13.3333333,10.816 13.3333333,11 Z M16,9.33333333 L12.6666667,0 L3.33333333,0 L0,9.33333333 L0,13.3333333 L16,13.3333333 L16,9.33333333 Z M4.22266667,1.33333333 L11.778,1.33333333 L14.278,8.66666667 L1.722,8.66666667 L4.22266667,1.33333333 L4.22266667,1.33333333 Z M14.6666667,12 L1.33333333,12 L1.33333333,10 L14.6666667,10 L14.6666667,12 Z M7.33333333,2 L7.33333333,5.33333333 L5.33333333,5.33333333 L8,8 L10.6666667,5.33333333 L8.66666667,5.33333333 L8.66666667,2 L7.33333333,2 Z" id="Shape"></path>
            </g>
        </g>
    </g>
</svg>