<?xml version="1.0" encoding="utf-8"?>
<!-- Generator: Adobe Illustrator 16.0.0, SVG Export Plug-In . SVG Version: 6.00 Build 0)  -->
<!DOCTYPE svg PUBLIC "-//W3C//DTD SVG 1.1//EN" "http://www.w3.org/Graphics/SVG/1.1/DTD/svg11.dtd">
<svg version="1.1" id="Layer_1" xmlns="http://www.w3.org/2000/svg" xmlns:xlink="http://www.w3.org/1999/xlink" x="0px" y="0px"
	 width="25px" height="25px" viewBox="0 0 25 25" enable-background="new 0 0 25 25" xml:space="preserve">
<g>
	<path fill="#94969C" d="M14.391,17.266c-0.219,0.219-0.492,0.328-0.82,0.328s-0.617-0.109-0.867-0.328l-1.266-1.313
		c-0.25-0.219-0.539-0.328-0.867-0.328s-0.602,0.109-0.82,0.328c-0.375,0.375-0.875,1.016-1.5,1.922l-0.516,0.75
		c-0.406,0.531-0.75,0.938-1.031,1.219c-0.906,0.906-1.797,1.531-2.672,1.875C3,22.125,2.211,22.047,1.664,21.484
		s-0.617-1.344-0.211-2.344c0.344-0.875,0.969-1.766,1.875-2.672c0.281-0.281,0.688-0.625,1.219-1.031l0.844-0.563
		c0.875-0.625,1.469-1.109,1.781-1.453c0.25-0.219,0.375-0.5,0.375-0.844c0-0.344-0.125-0.625-0.375-0.844l-1.266-1.266
		c-0.219-0.25-0.328-0.539-0.328-0.867S5.688,9,5.906,8.781l2.156-2.156l8.484,8.485L14.391,17.266z M23.719,7.89
		c-1.063,0.219-2.063,0.219-3,0c-0.625-0.156-1.406-0.484-2.344-0.984C17.688,6.5,17,6,16.313,5.406
		c-0.531-0.438-1-0.781-1.406-1.031c-0.719-0.469-1.523-0.734-2.414-0.797C11.602,3.515,11,3.656,10.688,4L8.906,5.781l8.484,8.485
		L23.719,7.89z"/>
</g>
</svg>
