<?xml version="1.0" encoding="utf-8"?>
<!-- Generator: Adobe Illustrator 16.0.0, SVG Export Plug-In . SVG Version: 6.00 Build 0)  -->
<!DOCTYPE svg PUBLIC "-//W3C//DTD SVG 1.1//EN" "http://www.w3.org/Graphics/SVG/1.1/DTD/svg11.dtd">
<svg version="1.1" id="Layer_1" xmlns="http://www.w3.org/2000/svg" xmlns:xlink="http://www.w3.org/1999/xlink" x="0px" y="0px"
	 width="25px" height="25px" viewBox="0 0 25 25" enable-background="new 0 0 25 25" xml:space="preserve">
<g>
	<path fill="#94979D" d="M7.004,7.22L8.082,5.86L18.91,16.688l-1.453,0.984c-0.406,0.406-1.094,0.75-2.063,1.031
		c-0.906,0.251-1.734,0.375-2.484,0.375H8.223l-1.5,1.5c-0.344,0.345-0.766,0.516-1.266,0.516s-0.922-0.171-1.266-0.516
		c-0.344-0.344-0.516-0.766-0.516-1.266c0-0.499,0.172-0.921,0.516-1.266l1.5-1.5v-4.641c0-0.781,0.109-1.625,0.328-2.531
		C6.301,8.314,6.629,7.595,7.004,7.22z M16.613,5.11l-3.891,3.891l-2.25-2.25l3.891-3.891c0.188-0.218,0.469-0.289,0.844-0.211
		c0.375,0.078,0.719,0.274,1.031,0.586c0.313,0.313,0.5,0.649,0.563,1.008C16.863,4.603,16.801,4.892,16.613,5.11z M15.723,12.001
		l3.891-3.891c0.188-0.218,0.469-0.289,0.844-0.211c0.375,0.078,0.711,0.266,1.008,0.563c0.297,0.297,0.484,0.633,0.563,1.008
		s0.008,0.656-0.211,0.844l-3.891,3.891L15.723,12.001z"/>
</g>
</svg>
