<?xml version="1.0" encoding="UTF-8"?>
<svg width="10px" height="21px" viewBox="0 0 10 21" version="1.1" xmlns="http://www.w3.org/2000/svg" xmlns:xlink="http://www.w3.org/1999/xlink">
    <!-- Generator: Sketch 45.1 (43504) - http://www.bohemiancoding.com/sketch -->
    <title>Help Icon - Light</title>
    <desc>Created with Sketch.</desc>
    <defs></defs>
    <g id="Symbols" stroke="none" stroke-width="1" fill="none" fill-rule="evenodd">
        <g id="Help-Icon---Light" fill="#C6C9D4">
            <path d="M3.64,14.258 C3.52399942,13.5039962 3.54816584,12.822503 3.7125,12.2135 C3.87683416,11.604497 4.10399855,11.0438359 4.394,10.5315 C4.68400145,10.0191641 5.01749811,9.54066889 5.3945,9.096 C5.77150188,8.65133111 6.12433169,8.21150218 6.453,7.7765 C6.78166831,7.34149782 7.05716556,6.90166889 7.2795,6.457 C7.50183444,6.01233111 7.613,5.52900261 7.613,5.007 C7.613,4.2336628 7.37616903,3.57150275 6.9025,3.0205 C6.42883096,2.46949724 5.72800464,2.194 4.8,2.194 C4.16199681,2.194 3.55783618,2.34383183 2.9875,2.6435 C2.41716381,2.94316817 1.90966889,3.35399739 1.465,3.876 L0.102,2.629 C0.72066976,1.93299652 1.42632937,1.3578356 2.219,0.9035 C3.01167063,0.449164395 3.92999478,0.222 4.974,0.222 C6.48200754,0.222 7.6854955,0.632829225 8.5845,1.4545 C9.48350449,2.27617077 9.933,3.41199275 9.933,4.862 C9.933,5.50000319 9.81700116,6.07999739 9.585,6.602 C9.35299884,7.12400261 9.06783502,7.61699768 8.7295,8.081 C8.39116497,8.54500232 8.03350188,9.0041644 7.6565,9.4585 C7.27949811,9.91283561 6.93150159,10.3816643 6.6125,10.865 C6.29349841,11.3483358 6.04700087,11.8654972 5.873,12.4165 C5.69899913,12.9675028 5.65066628,13.5813299 5.728,14.258 L3.64,14.258 Z M3.031,18.55 C3.031,17.9893305 3.19533169,17.539835 3.524,17.2015 C3.85266831,16.863165 4.25866425,16.694 4.742,16.694 C5.22533575,16.694 5.63616497,16.863165 5.9745,17.2015 C6.31283502,17.539835 6.482,17.9893305 6.482,18.55 C6.482,19.0720026 6.31283502,19.502165 5.9745,19.8405 C5.63616497,20.178835 5.22533575,20.348 4.742,20.348 C4.25866425,20.348 3.85266831,20.178835 3.524,19.8405 C3.19533169,19.502165 3.031,19.0720026 3.031,18.55 Z" id="?"></path>
        </g>
    </g>
</svg>