<?xml version="1.0" encoding="utf-8"?>
<!-- Generator: Adobe Illustrator 16.0.0, SVG Export Plug-In . SVG Version: 6.00 Build 0)  -->
<!DOCTYPE svg PUBLIC "-//W3C//DTD SVG 1.1//EN" "http://www.w3.org/Graphics/SVG/1.1/DTD/svg11.dtd">
<svg version="1.1" id="Layer_1" xmlns="http://www.w3.org/2000/svg" xmlns:xlink="http://www.w3.org/1999/xlink" x="0px" y="0px"
	 width="24px" height="24px" viewBox="-2 -2 24 24" enable-background="new -2 -2 24 24" xml:space="preserve">
	<path d="M2 19h16c.55 0 1-.45 1-1V2c0-.55-.45-1-1-1H2c-.55 0-1 .45-1 1v16c0 .55.45 1 1 1zM4 3c.55 0 1 .45 1 1s-.45 1-1 1-1-.45-1-1 .45-1 1-1zm13 0v2H6V3h11zM4 7c.55 0 1 .45 1 1s-.45 1-1 1-1-.45-1-1 .45-1 1-1zm13 0v2H6V7h11zM4 11c.55 0 1 .45 1 1s-.45 1-1 1-1-.45-1-1 .45-1 1-1zm13 0v2H6v-2h11zM4 15c.55 0 1 .45 1 1s-.45 1-1 1-1-.45-1-1 .45-1 1-1zm13 0v2H6v-2h11z" fill="#93959D"/>
</svg>
