<?xml version="1.0" encoding="UTF-8"?>
<svg width="21px" height="21px" viewBox="0 0 21 21" version="1.1" xmlns="http://www.w3.org/2000/svg" xmlns:xlink="http://www.w3.org/1999/xlink">
    <!-- Generator: Sketch 45.1 (43504) - http://www.bohemiancoding.com/sketch -->
    <title>Settings Icon Light</title>
    <desc>Created with Sketch.</desc>
    <defs></defs>
    <g id="Symbols" stroke="none" stroke-width="1" fill="none" fill-rule="evenodd">
        <g id="Sub-Menu" transform="translate(-1078.000000, -15.000000)" fill-rule="nonzero" fill="#C6C9D4">
            <g id="Settings-Icon---Light" transform="translate(1078.000000, 15.000000)">
                <path d="M21,12.25 L21,8.75 C19.583375,8.75 18.45725,8.983625 17.758125,7.4585 C17.14825,6.003375 18.286625,5.187 19.161625,4.312 L16.68625,1.8375 C15.782375,2.741375 15.01675,3.856125 13.4785,3.215625 C12.01375,2.615375 12.25,1.173375 12.25,0 L8.75,0 C8.75,1.148 8.99325,2.611875 7.5215,3.215625 C5.980625,3.857 5.20625,2.73175 4.312875,1.838375 L1.8375,4.312875 C2.741375,5.21675 3.857,5.98325 3.215625,7.5215 C2.911125,8.264375 2.186625,8.75 1.383375,8.75 L0,8.75 L0,12.25 C1.287125,12.25 2.601375,12.004125 3.241,13.540625 C3.85175,14.994 2.7125,15.812125 1.8375,16.687125 L4.312875,19.1625 C5.187875,18.2875 6.013,17.16575 7.5215,17.784375 C8.985375,18.3855 8.75,19.824875 8.75,21 L12.25,21 C12.25,19.9115 12.0085,18.403875 13.540625,17.759 C14.98,17.1535 15.803375,18.279625 16.687125,19.1625 L19.161625,16.687125 C18.286625,15.812125 17.14825,14.99575 17.758125,13.5415 L17.784375,13.4785 C18.3855,12.014625 19.824875,12.25 21,12.25 L21,12.25 Z M10.5,14 C8.567125,14 7,12.432875 7,10.5 C7,8.567125 8.567125,7 10.5,7 C12.432875,7 14,8.567125 14,10.5 C14,12.432875 12.432875,14 10.5,14 Z" id="Shape"></path>
            </g>
        </g>
    </g>
</svg>