<?xml version="1.0" encoding="UTF-8"?>
<svg width="20px" height="20px" viewBox="0 0 20 20" version="1.1" xmlns="http://www.w3.org/2000/svg" xmlns:xlink="http://www.w3.org/1999/xlink">
    <!-- Generator: Sketch 45.2 (43514) - http://www.bohemiancoding.com/sketch -->
    <title>Tool Icon</title>
    <desc>Created with Sketch.</desc>
    <defs></defs>
    <g id="Symbols" stroke="none" stroke-width="1" fill="none" fill-rule="evenodd">
        <g id="Advanced-Tools-Icon" transform="translate(-32.000000, 0.000000)" fill-rule="nonzero" fill="#94979F">
            <g id="Tool-Icon" transform="translate(32.000000, 0.000000)">
                <path d="M3.75,0.214166667 L6.8925,3.35666667 C7.23333333,4.93083333 4.95083333,7.24 3.3575,6.89166667 L0.215,3.75 C0.0716666667,4.23666667 0,4.74 0,5.24333333 C0,6.57833333 0.505833333,7.91166667 1.525,8.93166667 C2.65083333,10.0575 4.16166667,10.5633333 5.63416667,10.4491667 C6.41166667,10.3891667 7.1775,10.6733333 7.72916667,11.225 L15.7808333,19.2766667 C16.2625,19.7583333 16.895,20 17.5283333,20 C18.9125,20 20.0291667,18.8633333 20,17.475 C19.9866667,16.8608333 19.745,16.25 19.2766667,15.7808333 L11.225,7.72833333 C10.6733333,7.1775 10.39,6.41083333 10.4491667,5.63333333 C10.5633333,4.16083333 10.0566667,2.65 8.9325,1.525 C7.91166667,0.505 6.57833333,0 5.2425,0 C4.74,0 4.23666667,0.0716666667 3.75,0.214166667 L3.75,0.214166667 Z M18.3333333,17.5 C18.3333333,17.9608333 17.9608333,18.3333333 17.5,18.3333333 C17.0391667,18.3333333 16.6666667,17.96 16.6666667,17.5 C16.6666667,17.04 17.0391667,16.6666667 17.5,16.6666667 C17.9608333,16.6666667 18.3333333,17.0391667 18.3333333,17.5 Z" id="Shape"></path>
            </g>
        </g>
    </g>
</svg>