<?xml version="1.0" encoding="UTF-8"?>
<svg width="31px" height="23px" viewBox="0 0 31 23" version="1.1" xmlns="http://www.w3.org/2000/svg" xmlns:xlink="http://www.w3.org/1999/xlink">
    <!-- Generator: Sketch 48.2 (47327) - http://www.bohemiancoding.com/sketch -->
    <title>Updates Outline Icon - White</title>
    <desc>Created with Sketch.</desc>
    <defs></defs>
    <g id="Symbols" stroke="none" stroke-width="1" fill="none" fill-rule="evenodd">
        <g id="Updates-Outline-Icon---White" fill="#FFFFFF" fill-rule="nonzero">
            <path d="M26.7646867,12.7523304 C26.1397855,18.5144567 21.2619776,23.0025001 15.335,23.0025001 C11.8871809,23.0025001 8.80229002,21.4766676 6.6924496,19.0729063 L8.28345585,16.9860684 C9.92302294,19.0882413 12.4699109,20.4466667 15.335,20.4466667 C19.8409342,20.4466667 23.5698951,17.0934134 24.1820171,12.7523304 L20.4466667,12.7523304 L25.5583334,6.04326793 L30.6700001,12.7523304 L26.7646867,12.7523304 Z M6.49181668,10.2233334 C7.1141621,5.8950296 10.8367334,2.55583334 15.335,2.55583334 C18.1936996,2.55583334 20.7380317,3.90914709 22.3763209,6.00365251 L23.9660492,3.91809251 C21.8574867,1.52072084 18.7764296,0 15.335,0 C9.41569002,0 4.54554959,4.47398626 3.90914709,10.2233334 L3.55271368e-15,10.2233334 L5.11166668,16.9323959 L10.2233334,10.2233334 L6.49181668,10.2233334 L6.49181668,10.2233334 Z" id="Shape"></path>
        </g>
    </g>
</svg>