<?xml version="1.0" encoding="UTF-8"?>
<svg width="26px" height="20px" viewBox="0 0 26 20" version="1.1" xmlns="http://www.w3.org/2000/svg" xmlns:xlink="http://www.w3.org/1999/xlink">
    <!-- Generator: Sketch 45.2 (43514) - http://www.bohemiancoding.com/sketch -->
    <title>Updates Outline Icon</title>
    <desc>Created with Sketch.</desc>
    <defs></defs>
    <g id="Symbols" stroke="none" stroke-width="1" fill="none" fill-rule="evenodd">
        <g id="Show-Updates-Icon" transform="translate(-25.000000, 0.000000)" fill-rule="nonzero" fill="#94979F">
            <g id="Updates-Outline-Icon---Mid">
                <g transform="translate(25.000000, 0.000000)">
                    <path d="M22.4478018,11.088983 C21.923691,16.0995276 17.8326263,20.002174 12.8616129,20.002174 C9.96989363,20.002174 7.38256582,18.6753631 5.61302225,16.5851359 L6.94741459,14.7704942 C8.32253537,16.5984707 10.4586349,17.7797102 12.8616129,17.7797102 C16.6407835,17.7797102 19.7682991,14.8638377 20.2816918,11.088983 L17.1488172,11.088983 L21.4360216,5.25501559 L25.7232259,11.088983 L22.4478018,11.088983 Z M5.44474948,8.88985509 C5.9667166,5.12611269 9.08887314,2.22246377 12.8616129,2.22246377 C15.2592319,2.22246377 17.3931879,3.39925834 18.7672369,5.2205674 L20.1005574,3.40703696 C18.3320856,1.32236595 15.7479732,0 12.8616129,0 C7.89703034,0 3.81239643,3.89042284 3.2786395,8.88985509 L3.55271368e-15,8.88985509 L4.28720431,14.7238225 L8.57440862,8.88985509 L5.44474948,8.88985509 L5.44474948,8.88985509 Z" id="Shape"></path>
                </g>
            </g>
        </g>
    </g>
</svg>