<?xml version="1.0" encoding="UTF-8"?>
<svg width="17px" height="16px" viewBox="0 0 17 16" version="1.1" xmlns="http://www.w3.org/2000/svg" xmlns:xlink="http://www.w3.org/1999/xlink">
    <!-- Generator: Sketch 45 (43475) - http://www.bohemiancoding.com/sketch -->
    <title>Users Outline Icon</title>
    <desc>Created with Sketch.</desc>
    <defs></defs>
    <g id="Symbols" stroke="none" stroke-width="1" fill="none" fill-rule="evenodd">
        <g id="Side-Menu" transform="translate(-31.000000, -386.000000)" stroke="#64656A" stroke-width="1.2">
            <g id="Users-Outline-Icon---Dark" transform="translate(32.000000, 387.000000)">
                <path d="M14.8909684,12.8029028 C12.8722124,11.9394148 11.6334176,11.2751498 11.0899281,10.9574088 C11.0899281,10.9574088 10.8133862,10.6159642 10.7434041,10.4878519 C10.6847095,10.3806214 10.5639341,10.2801633 10.4414655,10.2801633 C10.4414655,10.2801633 10.4008308,10.2807277 10.3308488,10.2722621 C10.1953997,10.255331 10.1728248,10.231063 10.1660524,10.2062307 C10.0193158,9.70506902 9.90305535,8.57068283 9.90305535,8.57068283 C10.8421691,7.71678914 10.8686945,6.17549129 10.8686945,6.17549129 C10.9251317,6.24603769 11.2840718,7.02374126 11.5764161,5.16300928 C11.8450568,3.45352879 11.4578981,3.62679076 11.3105972,3.65839555 L11.3230134,3.58841352 C11.3230134,3.58841352 11.4821661,2.94785216 11.2744775,1.79314861 C11.028976,0.423983976 10.2264401,-0.131357324 9.63159279,-0.444583363 C9.01473502,-0.770225568 8.31942965,-0.974527957 7.62073806,-0.997667178 C7.5394686,-1.00048903 7.37636531,-1.00105341 7.29509585,-0.997667178 C6.59640426,-0.970577359 5.90109889,-0.770225568 5.28424112,-0.444583363 C4.68939383,-0.131357324 3.88685793,0.423983976 3.64079207,1.79314861 C3.43366782,2.94785216 3.59282051,3.58841352 3.59282051,3.58841352 L3.60523668,3.65839555 C3.45793579,3.62679076 3.07077712,3.45352879 3.33941783,5.16300928 C3.63176213,7.02374126 3.99070224,6.24603769 4.04770373,6.17549129 C4.04770373,6.17549129 4.07422918,7.71678914 5.01334293,8.57068283 C5.01334293,8.57068283 4.89651808,9.70506902 4.75034593,10.2062307 C4.7430091,10.231063 4.73002856,10.2519448 4.57482647,10.2728265 C4.50540881,10.2824208 4.43768426,10.2790346 4.43768426,10.2790346 C4.3152157,10.2790346 4.17920223,10.3727202 4.13574565,10.4867232 L3.82590584,10.9574088 C3.16107652,11.267813 2.04362146,11.9394148 0.0254299041,12.8029028 C-0.396155412,12.9835016 -0.796294622,13.8836737 -0.994388927,15 L15.9102228,15 C15.7290597,13.9056842 15.3125537,12.9835016 14.8909684,12.8029028" id="Fill-37-Copy"></path>
            </g>
        </g>
    </g>
</svg>