<?xml version="1.0" encoding="UTF-8"?>
<svg width="17px" height="17px" viewBox="0 0 17 17" version="1.1" xmlns="http://www.w3.org/2000/svg" xmlns:xlink="http://www.w3.org/1999/xlink">
    <!-- Generator: Sketch 48.2 (47327) - http://www.bohemiancoding.com/sketch -->
    <title>View Outline Icon</title>
    <desc>Created with Sketch.</desc>
    <defs></defs>
    <g id="Symbols" stroke="none" stroke-width="1" fill="none" fill-rule="evenodd">
        <g id="View-Outline-Icon">
            <path d="M8.5,12.1999998 C6.57331124,12.1999998 4.50558978,11.1954712 2.51748355,9.27682159 C1.6145636,8.41438542 0.798527832,7.44695529 0.0835319961,6.3913132 C-0.0278439987,6.21748837 -0.0278439987,5.98502276 0.0835319961,5.81119793 C0.798399742,4.7546785 1.61443994,3.78640114 2.51748355,2.92317822 C4.50558978,1.00955124 6.57331124,0 8.5,0 C10.4266888,0 12.4944102,1.0045286 14.4825164,2.92317822 C15.3854364,3.78561439 16.2014722,4.75304452 16.916468,5.80868661 C17.027844,5.98251144 17.027844,6.21497705 16.916468,6.38880188 C16.2016003,7.44532131 15.3855601,8.41359867 14.4825164,9.27682159 C12.4944102,11.1904486 10.4266888,12.1999998 8.5,12.1999998 Z M1.59230476,6.0999999 C2.32212843,7.11113838 5.14161818,10.6999998 8.416468,10.6999998 C11.6913178,10.6999998 14.5128868,7.1134055 15.2406313,6.0999999 C14.5108076,5.08886143 11.6913178,1.5 8.416468,1.5 C5.14161818,1.5 2.32004916,5.08659431 1.59230476,6.0999999 Z" id="Shape" fill="#6E7078" fill-rule="nonzero"></path>
            <circle id="Oval-3" stroke="#6E7078" stroke-width="1.3" cx="8.5" cy="6" r="2.5"></circle>
        </g>
    </g>
</svg>