<?xml version="1.0" encoding="UTF-8"?>
<svg width="22px" height="20px" viewBox="0 0 22 20" version="1.1" xmlns="http://www.w3.org/2000/svg" xmlns:xlink="http://www.w3.org/1999/xlink">
    <!-- Generator: Sketch 48.1 (47250) - http://www.bohemiancoding.com/sketch -->
    <title>WP-Optimize Icon - Mid</title>
    <desc>Created with Sketch.</desc>
    <defs></defs>
    <g id="WP-Optimize-Icon" stroke="none" stroke-width="1" fill="none" fill-rule="evenodd" transform="translate(-31.000000, 0.000000)">
        <g id="WP-Optimize-Icon---Mid" transform="translate(31.000000, 0.000000)" fill="#94979F">
            <path d="M14.5588235,4.2351753 C10.5609137,1.83938077 5.09272365,4.38866065 4.37642804,8.23575575 C5.32256434,8.50776025 6.51666496,9.19915585 6.94668947,9.99219739 C6.97964154,9.99219739 7.01259361,9.99219739 7.04554568,9.99219739 C7.26138174,7.66979122 9.48976545,5.3561266 12.3839869,6.47931411 C15.8128557,7.81026589 14.8257353,12.0985043 20.8856209,12.2365395 C20.0935355,22.892692 1.18172488,22.5588868 0.916666667,11.3583187 C4.93949653,11.3800709 4.88636132,14.5538634 7.34211431,16.042163 C11.2835937,18.4310456 16.7583742,15.9939829 17.5245098,12.2365395 C16.5773437,11.9631119 15.3449363,11.2147946 14.9542484,10.3825178 C14.9212963,10.3825178 14.8883442,10.3825178 14.8553922,10.3825178 C14.7538586,12.7500547 12.350417,14.9136899 9.51695091,13.7978209 C6.06789897,12.4398313 7.1934181,8.45714058 0.916666667,8.33333584 C2.03353588,4.64521498 3.790705,2.05121089 7.2432581,0.722292023 C14.1415679,-1.9333095 20.9418454,3.14817375 21.0833333,9.21155666 C17.0170479,9.18146946 17.0870711,5.75010622 14.5588235,4.2351753 Z" id="WPOptimize_logo_affinity"></path>
        </g>
    </g>
</svg>