<?xml version="1.0" encoding="UTF-8"?>
<svg width="17px" height="17px" viewBox="0 0 17 17" version="1.1" xmlns="http://www.w3.org/2000/svg" xmlns:xlink="http://www.w3.org/1999/xlink">
    <!-- Generator: Sketch 48.1 (47250) - http://www.bohemiancoding.com/sketch -->
    <title>WPO Outline Icon</title>
    <desc>Created with Sketch.</desc>
    <defs></defs>
    <g id="Symbols" stroke="none" stroke-width="1" fill="none" fill-rule="evenodd">
        <g id="WPO-Outline-Icon" fill="#6E7078">
            <path d="M12.2743859,2.76498112 C8.90424701,0.728555768 3.93295181,1.74013458 2.15791234,6.1800385 C2.95548179,6.41124233 4.72065972,7.81928248 5.08315972,8.49336778 C5.1109375,8.49336778 5.13871528,8.49336778 5.16649306,8.49336778 C5.3484375,6.51932254 7.22690972,4.55270761 9.66666667,5.50741699 C12.5571181,6.63872601 11.725,10.2837287 16.8333333,10.4010586 C16.165625,19.4587882 0.2234375,19.1750538 0,9.65457086 C1.92738774,9.65457086 2.85367354,13.244694 4.92381243,14.5097488 C8.24638188,16.540299 14.3700522,14.8365668 15.1907198,10.8700945 C14.1606041,10.8700945 12.1626736,9.53257542 11.8333333,8.82514009 C11.8055556,8.82514009 11.7777778,8.82514009 11.75,8.82514009 C11.6644097,10.8375465 9.63836806,12.6766364 7.24982639,11.7281478 C4.34236111,10.5738566 5.29114583,7.18856949 0,7.08333546 C0.941493056,3.94843273 2.42274306,1.74352926 5.33315972,0.61394822 C11.1482639,-1.64331307 16.8807292,2.67594768 17,7.82982316 C14.7068815,7.82982316 14.4056359,4.05267239 12.2743859,2.76498112 Z" id="WPOptimize_logo_affinity-Copy"></path>
        </g>
    </g>
</svg>